ISO-10303-21;
HEADER;
/* Generated by software containing ST-Developer
 * from STEP Tools, Inc. (www.steptools.com) 
 */
/* OPTION: using custom renumber hook */

FILE_DESCRIPTION(
/* description */ ('STEP AP242 Edition 2',
'CAx-IF Rec.Pracs.---Representation and Presentation of Product Manufa
cturing Information (PMI)---4.0---2014-10-13',
'CAx-IF Rec.Pracs.---3D Tessellated Geometry---0.4---2014-09-14','2;1',
'CAx-IF Rec.Pracs.---User Defined Attributes---1.5---2016-08-15'),
/* implementation_level */ '2;1');

FILE_NAME(
/* name */ 'Tail2Tidy - Folded',
/* time_stamp */ '2026-06-10T17:43:27Z',
/* author */ (''),
/* organization */ (''),
/* preprocessor_version */ 'ST-DEVELOPER v20',
/* originating_system */ 'ONSHAPE BY PTC INC, 1.216',
/* authorisation */ '  ');

FILE_SCHEMA (('AP242_MANAGED_MODEL_BASED_3D_ENGINEERING_MIM_LF { 1 0 10303 442 3 1 4 }'));
ENDSEC;

DATA;
#10=SHAPE_REPRESENTATION_RELATIONSHIP('','',#1124,#11);
#11=ADVANCED_BREP_SHAPE_REPRESENTATION('',(#1122),#1878);
#12=B_SPLINE_SURFACE_WITH_KNOTS('',3,1,((#1794,#1795),(#1796,#1797),(#1798,
#1799),(#1800,#1801),(#1802,#1803),(#1804,#1805),(#1806,#1807)),
 .SURF_OF_LINEAR_EXTRUSION.,.F.,.F.,.F.,(4,1,1,1,4),(2,2),(3.14159265358979,
3.92699081698724,4.71238898038469,5.49778714378214,6.28318530717959),(0.,
1.),.UNSPECIFIED.);
#13=B_SPLINE_SURFACE_WITH_KNOTS('',3,1,((#1821,#1822),(#1823,#1824),(#1825,
#1826),(#1827,#1828),(#1829,#1830),(#1831,#1832),(#1833,#1834)),
 .SURF_OF_LINEAR_EXTRUSION.,.F.,.F.,.F.,(4,1,1,1,4),(2,2),(3.14159265358979,
3.92699081698724,4.71238898038469,5.49778714378214,6.28318530717959),(0.,
1.),.UNSPECIFIED.);
#14=B_SPLINE_CURVE_WITH_KNOTS('',3,(#1657,#1658,#1659,#1660,#1661,#1662,
#1663),.UNSPECIFIED.,.F.,.F.,(4,1,1,1,4),(0.,0.00281694124718631,0.00563388249437261,
0.00845082374155892,0.0112677649887452),.UNSPECIFIED.);
#15=B_SPLINE_CURVE_WITH_KNOTS('',3,(#1671,#1672,#1673,#1674,#1675,#1676,
#1677),.UNSPECIFIED.,.F.,.F.,(4,1,1,1,4),(0.,0.00284550953470637,0.00569101906941275,
0.00853652860411912,0.0113820381388255),.UNSPECIFIED.);
#16=B_SPLINE_CURVE_WITH_KNOTS('',3,(#1700,#1701,#1702,#1703,#1704,#1705,
#1706),.UNSPECIFIED.,.F.,.F.,(4,1,1,1,4),(0.,0.00281694124718628,0.00563388249437256,
0.00845082374155884,0.0112677649887451),.UNSPECIFIED.);
#17=B_SPLINE_CURVE_WITH_KNOTS('',3,(#1726,#1727,#1728,#1729,#1730,#1731,
#1732),.UNSPECIFIED.,.F.,.F.,(4,1,1,1,4),(0.,0.00284372277611708,0.00568744555223417,
0.00853116832835125,0.0113748911044683),.UNSPECIFIED.);
#18=CYLINDRICAL_SURFACE('',#1140,0.0030000167570873);
#19=CYLINDRICAL_SURFACE('',#1148,0.0055060636428341);
#20=CYLINDRICAL_SURFACE('',#1151,0.00540000930951092);
#21=CYLINDRICAL_SURFACE('',#1175,0.00374144544137161);
#22=CYLINDRICAL_SURFACE('',#1178,0.00374144544169989);
#23=CYLINDRICAL_SURFACE('',#1181,0.00374144544147148);
#24=CYLINDRICAL_SURFACE('',#1184,0.00374144544169989);
#25=CYLINDRICAL_SURFACE('',#1191,0.00340654809379917);
#26=CYLINDRICAL_SURFACE('',#1193,0.00340654809379917);
#27=CYLINDRICAL_SURFACE('',#1195,0.00340654809379917);
#28=CYLINDRICAL_SURFACE('',#1197,0.00340654809379917);
#29=CYLINDRICAL_SURFACE('',#1199,0.008);
#30=CYLINDRICAL_SURFACE('',#1200,0.008);
#31=CYLINDRICAL_SURFACE('',#1201,0.008);
#32=CYLINDRICAL_SURFACE('',#1202,0.008);
#33=CIRCLE('',#1129,0.00340654809379917);
#34=CIRCLE('',#1130,0.00340654809379917);
#35=CIRCLE('',#1131,0.00340654809379917);
#36=CIRCLE('',#1132,0.00340654809379917);
#37=CIRCLE('',#1134,0.00340654809379917);
#38=CIRCLE('',#1135,0.00340654809379917);
#39=CIRCLE('',#1138,0.00340654809379917);
#40=CIRCLE('',#1139,0.00340654809379917);
#41=CIRCLE('',#1144,0.0030000167570873);
#42=CIRCLE('',#1145,0.0030000167570873);
#43=CIRCLE('',#1149,0.0055060636428341);
#44=CIRCLE('',#1150,0.0055060636428341);
#45=CIRCLE('',#1152,0.00540000930951092);
#46=CIRCLE('',#1153,0.00540000930951092);
#47=CIRCLE('',#1155,0.008);
#48=CIRCLE('',#1156,0.008);
#49=CIRCLE('',#1167,0.008);
#50=CIRCLE('',#1168,0.008);
#51=ELLIPSE('',#1127,0.00801465787543944,0.008);
#52=ELLIPSE('',#1128,0.00801465787543944,0.008);
#53=ELLIPSE('',#1136,0.00801465787543944,0.008);
#54=ELLIPSE('',#1137,0.00801465787543944,0.008);
#55=ELLIPSE('',#1141,0.0042426643852194,0.0030000167570873);
#56=ELLIPSE('',#1142,0.0042426643852194,0.0030000167570873);
#57=ELLIPSE('',#1143,0.00424266438521941,0.0030000167570873);
#58=ELLIPSE('',#1146,0.00424266438521941,0.0030000167570873);
#59=ELLIPSE('',#1157,0.0038734293458593,0.00374144544147148);
#60=ELLIPSE('',#1158,0.00387342934609577,0.00374144544169989);
#61=ELLIPSE('',#1159,0.00387342934575591,0.00374144544137161);
#62=ELLIPSE('',#1160,0.00387342934609577,0.00374144544169989);
#63=ELLIPSE('',#1163,0.0038734293458593,0.00374144544147148);
#64=ELLIPSE('',#1164,0.00387342934609577,0.00374144544169989);
#65=ELLIPSE('',#1165,0.00387342934575591,0.00374144544137161);
#66=ELLIPSE('',#1166,0.00387342934609577,0.00374144544169989);
#67=ORIENTED_EDGE('',*,*,#389,.F.);
#68=ORIENTED_EDGE('',*,*,#390,.T.);
#69=ORIENTED_EDGE('',*,*,#391,.F.);
#70=ORIENTED_EDGE('',*,*,#392,.T.);
#71=ORIENTED_EDGE('',*,*,#393,.T.);
#72=ORIENTED_EDGE('',*,*,#394,.T.);
#73=ORIENTED_EDGE('',*,*,#395,.T.);
#74=ORIENTED_EDGE('',*,*,#396,.T.);
#75=ORIENTED_EDGE('',*,*,#397,.T.);
#76=ORIENTED_EDGE('',*,*,#398,.T.);
#77=ORIENTED_EDGE('',*,*,#399,.T.);
#78=ORIENTED_EDGE('',*,*,#400,.T.);
#79=ORIENTED_EDGE('',*,*,#401,.T.);
#80=ORIENTED_EDGE('',*,*,#402,.T.);
#81=ORIENTED_EDGE('',*,*,#403,.F.);
#82=ORIENTED_EDGE('',*,*,#404,.F.);
#83=ORIENTED_EDGE('',*,*,#405,.F.);
#84=ORIENTED_EDGE('',*,*,#406,.F.);
#85=ORIENTED_EDGE('',*,*,#407,.T.);
#86=ORIENTED_EDGE('',*,*,#408,.T.);
#87=ORIENTED_EDGE('',*,*,#409,.T.);
#88=ORIENTED_EDGE('',*,*,#410,.F.);
#89=ORIENTED_EDGE('',*,*,#411,.F.);
#90=ORIENTED_EDGE('',*,*,#412,.T.);
#91=ORIENTED_EDGE('',*,*,#413,.F.);
#92=ORIENTED_EDGE('',*,*,#414,.F.);
#93=ORIENTED_EDGE('',*,*,#415,.F.);
#94=ORIENTED_EDGE('',*,*,#416,.F.);
#95=ORIENTED_EDGE('',*,*,#417,.F.);
#96=ORIENTED_EDGE('',*,*,#418,.T.);
#97=ORIENTED_EDGE('',*,*,#419,.T.);
#98=ORIENTED_EDGE('',*,*,#420,.T.);
#99=ORIENTED_EDGE('',*,*,#421,.F.);
#100=ORIENTED_EDGE('',*,*,#422,.T.);
#101=ORIENTED_EDGE('',*,*,#423,.T.);
#102=ORIENTED_EDGE('',*,*,#424,.F.);
#103=ORIENTED_EDGE('',*,*,#394,.F.);
#104=ORIENTED_EDGE('',*,*,#425,.T.);
#105=ORIENTED_EDGE('',*,*,#426,.T.);
#106=ORIENTED_EDGE('',*,*,#427,.T.);
#107=ORIENTED_EDGE('',*,*,#391,.T.);
#108=ORIENTED_EDGE('',*,*,#428,.T.);
#109=ORIENTED_EDGE('',*,*,#407,.F.);
#110=ORIENTED_EDGE('',*,*,#429,.T.);
#111=ORIENTED_EDGE('',*,*,#430,.F.);
#112=ORIENTED_EDGE('',*,*,#431,.F.);
#113=ORIENTED_EDGE('',*,*,#432,.T.);
#114=ORIENTED_EDGE('',*,*,#410,.T.);
#115=ORIENTED_EDGE('',*,*,#433,.T.);
#116=ORIENTED_EDGE('',*,*,#434,.F.);
#117=ORIENTED_EDGE('',*,*,#435,.F.);
#118=ORIENTED_EDGE('',*,*,#436,.F.);
#119=ORIENTED_EDGE('',*,*,#437,.F.);
#120=ORIENTED_EDGE('',*,*,#438,.F.);
#121=ORIENTED_EDGE('',*,*,#439,.F.);
#122=ORIENTED_EDGE('',*,*,#431,.T.);
#123=ORIENTED_EDGE('',*,*,#440,.F.);
#124=ORIENTED_EDGE('',*,*,#441,.T.);
#125=ORIENTED_EDGE('',*,*,#442,.T.);
#126=ORIENTED_EDGE('',*,*,#438,.T.);
#127=ORIENTED_EDGE('',*,*,#443,.T.);
#128=ORIENTED_EDGE('',*,*,#444,.T.);
#129=ORIENTED_EDGE('',*,*,#445,.T.);
#130=ORIENTED_EDGE('',*,*,#446,.F.);
#131=ORIENTED_EDGE('',*,*,#447,.T.);
#132=ORIENTED_EDGE('',*,*,#448,.F.);
#133=ORIENTED_EDGE('',*,*,#449,.T.);
#134=ORIENTED_EDGE('',*,*,#436,.T.);
#135=ORIENTED_EDGE('',*,*,#450,.T.);
#136=ORIENTED_EDGE('',*,*,#451,.F.);
#137=ORIENTED_EDGE('',*,*,#452,.T.);
#138=ORIENTED_EDGE('',*,*,#453,.F.);
#139=ORIENTED_EDGE('',*,*,#454,.T.);
#140=ORIENTED_EDGE('',*,*,#455,.T.);
#141=ORIENTED_EDGE('',*,*,#456,.T.);
#142=ORIENTED_EDGE('',*,*,#434,.T.);
#143=ORIENTED_EDGE('',*,*,#457,.F.);
#144=ORIENTED_EDGE('',*,*,#458,.T.);
#145=ORIENTED_EDGE('',*,*,#459,.F.);
#146=ORIENTED_EDGE('',*,*,#460,.T.);
#147=ORIENTED_EDGE('',*,*,#461,.F.);
#148=ORIENTED_EDGE('',*,*,#462,.F.);
#149=ORIENTED_EDGE('',*,*,#463,.T.);
#150=ORIENTED_EDGE('',*,*,#464,.F.);
#151=ORIENTED_EDGE('',*,*,#465,.F.);
#152=ORIENTED_EDGE('',*,*,#466,.F.);
#153=ORIENTED_EDGE('',*,*,#467,.F.);
#154=ORIENTED_EDGE('',*,*,#468,.F.);
#155=ORIENTED_EDGE('',*,*,#469,.T.);
#156=ORIENTED_EDGE('',*,*,#470,.F.);
#157=ORIENTED_EDGE('',*,*,#471,.F.);
#158=ORIENTED_EDGE('',*,*,#472,.T.);
#159=ORIENTED_EDGE('',*,*,#473,.F.);
#160=ORIENTED_EDGE('',*,*,#474,.T.);
#161=ORIENTED_EDGE('',*,*,#440,.T.);
#162=ORIENTED_EDGE('',*,*,#475,.T.);
#163=ORIENTED_EDGE('',*,*,#476,.F.);
#164=ORIENTED_EDGE('',*,*,#477,.T.);
#165=ORIENTED_EDGE('',*,*,#478,.T.);
#166=ORIENTED_EDGE('',*,*,#479,.T.);
#167=ORIENTED_EDGE('',*,*,#480,.F.);
#168=ORIENTED_EDGE('',*,*,#481,.T.);
#169=ORIENTED_EDGE('',*,*,#482,.T.);
#170=ORIENTED_EDGE('',*,*,#483,.T.);
#171=ORIENTED_EDGE('',*,*,#484,.T.);
#172=ORIENTED_EDGE('',*,*,#485,.F.);
#173=ORIENTED_EDGE('',*,*,#486,.T.);
#174=ORIENTED_EDGE('',*,*,#487,.T.);
#175=ORIENTED_EDGE('',*,*,#488,.F.);
#176=ORIENTED_EDGE('',*,*,#489,.T.);
#177=ORIENTED_EDGE('',*,*,#490,.F.);
#178=ORIENTED_EDGE('',*,*,#491,.T.);
#179=ORIENTED_EDGE('',*,*,#473,.T.);
#180=ORIENTED_EDGE('',*,*,#492,.T.);
#181=ORIENTED_EDGE('',*,*,#493,.T.);
#182=ORIENTED_EDGE('',*,*,#423,.F.);
#183=ORIENTED_EDGE('',*,*,#494,.T.);
#184=ORIENTED_EDGE('',*,*,#495,.F.);
#185=ORIENTED_EDGE('',*,*,#496,.T.);
#186=ORIENTED_EDGE('',*,*,#497,.T.);
#187=ORIENTED_EDGE('',*,*,#498,.T.);
#188=ORIENTED_EDGE('',*,*,#499,.T.);
#189=ORIENTED_EDGE('',*,*,#500,.T.);
#190=ORIENTED_EDGE('',*,*,#419,.F.);
#191=ORIENTED_EDGE('',*,*,#501,.T.);
#192=ORIENTED_EDGE('',*,*,#502,.T.);
#193=ORIENTED_EDGE('',*,*,#503,.T.);
#194=ORIENTED_EDGE('',*,*,#504,.T.);
#195=ORIENTED_EDGE('',*,*,#505,.T.);
#196=ORIENTED_EDGE('',*,*,#506,.F.);
#197=ORIENTED_EDGE('',*,*,#507,.T.);
#198=ORIENTED_EDGE('',*,*,#426,.F.);
#199=ORIENTED_EDGE('',*,*,#442,.F.);
#200=ORIENTED_EDGE('',*,*,#508,.T.);
#201=ORIENTED_EDGE('',*,*,#490,.T.);
#202=ORIENTED_EDGE('',*,*,#425,.F.);
#203=ORIENTED_EDGE('',*,*,#393,.F.);
#204=ORIENTED_EDGE('',*,*,#509,.T.);
#205=ORIENTED_EDGE('',*,*,#411,.T.);
#206=ORIENTED_EDGE('',*,*,#432,.F.);
#207=ORIENTED_EDGE('',*,*,#439,.T.);
#208=ORIENTED_EDGE('',*,*,#493,.F.);
#209=ORIENTED_EDGE('',*,*,#510,.T.);
#210=ORIENTED_EDGE('',*,*,#457,.T.);
#211=ORIENTED_EDGE('',*,*,#433,.F.);
#212=ORIENTED_EDGE('',*,*,#430,.T.);
#213=ORIENTED_EDGE('',*,*,#409,.F.);
#214=ORIENTED_EDGE('',*,*,#511,.T.);
#215=ORIENTED_EDGE('',*,*,#389,.T.);
#216=ORIENTED_EDGE('',*,*,#424,.T.);
#217=ORIENTED_EDGE('',*,*,#453,.T.);
#218=ORIENTED_EDGE('',*,*,#512,.T.);
#219=ORIENTED_EDGE('',*,*,#497,.F.);
#220=ORIENTED_EDGE('',*,*,#513,.T.);
#221=ORIENTED_EDGE('',*,*,#451,.T.);
#222=ORIENTED_EDGE('',*,*,#514,.T.);
#223=ORIENTED_EDGE('',*,*,#499,.F.);
#224=ORIENTED_EDGE('',*,*,#515,.T.);
#225=ORIENTED_EDGE('',*,*,#435,.T.);
#226=ORIENTED_EDGE('',*,*,#516,.T.);
#227=ORIENTED_EDGE('',*,*,#421,.T.);
#228=ORIENTED_EDGE('',*,*,#517,.T.);
#229=ORIENTED_EDGE('',*,*,#495,.T.);
#230=ORIENTED_EDGE('',*,*,#518,.T.);
#231=ORIENTED_EDGE('',*,*,#455,.F.);
#232=ORIENTED_EDGE('',*,*,#519,.T.);
#233=ORIENTED_EDGE('',*,*,#466,.T.);
#234=ORIENTED_EDGE('',*,*,#520,.F.);
#235=ORIENTED_EDGE('',*,*,#484,.F.);
#236=ORIENTED_EDGE('',*,*,#521,.T.);
#237=ORIENTED_EDGE('',*,*,#522,.F.);
#238=ORIENTED_EDGE('',*,*,#485,.T.);
#239=ORIENTED_EDGE('',*,*,#520,.T.);
#240=ORIENTED_EDGE('',*,*,#472,.F.);
#241=ORIENTED_EDGE('',*,*,#471,.T.);
#242=ORIENTED_EDGE('',*,*,#523,.F.);
#243=ORIENTED_EDGE('',*,*,#486,.F.);
#244=ORIENTED_EDGE('',*,*,#522,.T.);
#245=ORIENTED_EDGE('',*,*,#470,.T.);
#246=ORIENTED_EDGE('',*,*,#524,.F.);
#247=ORIENTED_EDGE('',*,*,#487,.F.);
#248=ORIENTED_EDGE('',*,*,#523,.T.);
#249=ORIENTED_EDGE('',*,*,#525,.F.);
#250=ORIENTED_EDGE('',*,*,#488,.T.);
#251=ORIENTED_EDGE('',*,*,#524,.T.);
#252=ORIENTED_EDGE('',*,*,#469,.F.);
#253=ORIENTED_EDGE('',*,*,#468,.T.);
#254=ORIENTED_EDGE('',*,*,#526,.F.);
#255=ORIENTED_EDGE('',*,*,#489,.F.);
#256=ORIENTED_EDGE('',*,*,#525,.T.);
#257=ORIENTED_EDGE('',*,*,#467,.T.);
#258=ORIENTED_EDGE('',*,*,#521,.F.);
#259=ORIENTED_EDGE('',*,*,#483,.F.);
#260=ORIENTED_EDGE('',*,*,#526,.T.);
#261=ORIENTED_EDGE('',*,*,#459,.T.);
#262=ORIENTED_EDGE('',*,*,#527,.F.);
#263=ORIENTED_EDGE('',*,*,#477,.F.);
#264=ORIENTED_EDGE('',*,*,#528,.T.);
#265=ORIENTED_EDGE('',*,*,#528,.F.);
#266=ORIENTED_EDGE('',*,*,#476,.T.);
#267=ORIENTED_EDGE('',*,*,#529,.T.);
#268=ORIENTED_EDGE('',*,*,#460,.F.);
#269=ORIENTED_EDGE('',*,*,#461,.T.);
#270=ORIENTED_EDGE('',*,*,#529,.F.);
#271=ORIENTED_EDGE('',*,*,#482,.F.);
#272=ORIENTED_EDGE('',*,*,#530,.T.);
#273=ORIENTED_EDGE('',*,*,#462,.T.);
#274=ORIENTED_EDGE('',*,*,#530,.F.);
#275=ORIENTED_EDGE('',*,*,#481,.F.);
#276=ORIENTED_EDGE('',*,*,#531,.T.);
#277=ORIENTED_EDGE('',*,*,#531,.F.);
#278=ORIENTED_EDGE('',*,*,#480,.T.);
#279=ORIENTED_EDGE('',*,*,#532,.T.);
#280=ORIENTED_EDGE('',*,*,#463,.F.);
#281=ORIENTED_EDGE('',*,*,#464,.T.);
#282=ORIENTED_EDGE('',*,*,#532,.F.);
#283=ORIENTED_EDGE('',*,*,#479,.F.);
#284=ORIENTED_EDGE('',*,*,#533,.T.);
#285=ORIENTED_EDGE('',*,*,#465,.T.);
#286=ORIENTED_EDGE('',*,*,#533,.F.);
#287=ORIENTED_EDGE('',*,*,#478,.F.);
#288=ORIENTED_EDGE('',*,*,#527,.T.);
#289=ORIENTED_EDGE('',*,*,#504,.F.);
#290=ORIENTED_EDGE('',*,*,#534,.T.);
#291=ORIENTED_EDGE('',*,*,#446,.T.);
#292=ORIENTED_EDGE('',*,*,#535,.T.);
#293=ORIENTED_EDGE('',*,*,#502,.F.);
#294=ORIENTED_EDGE('',*,*,#536,.T.);
#295=ORIENTED_EDGE('',*,*,#448,.T.);
#296=ORIENTED_EDGE('',*,*,#537,.T.);
#297=ORIENTED_EDGE('',*,*,#417,.T.);
#298=ORIENTED_EDGE('',*,*,#538,.T.);
#299=ORIENTED_EDGE('',*,*,#437,.T.);
#300=ORIENTED_EDGE('',*,*,#539,.T.);
#301=ORIENTED_EDGE('',*,*,#444,.F.);
#302=ORIENTED_EDGE('',*,*,#540,.T.);
#303=ORIENTED_EDGE('',*,*,#506,.T.);
#304=ORIENTED_EDGE('',*,*,#541,.T.);
#305=ORIENTED_EDGE('',*,*,#542,.F.);
#306=ORIENTED_EDGE('',*,*,#403,.T.);
#307=ORIENTED_EDGE('',*,*,#543,.T.);
#308=ORIENTED_EDGE('',*,*,#396,.F.);
#309=ORIENTED_EDGE('',*,*,#543,.F.);
#310=ORIENTED_EDGE('',*,*,#406,.T.);
#311=ORIENTED_EDGE('',*,*,#544,.T.);
#312=ORIENTED_EDGE('',*,*,#397,.F.);
#313=ORIENTED_EDGE('',*,*,#544,.F.);
#314=ORIENTED_EDGE('',*,*,#405,.T.);
#315=ORIENTED_EDGE('',*,*,#545,.T.);
#316=ORIENTED_EDGE('',*,*,#398,.F.);
#317=ORIENTED_EDGE('',*,*,#545,.F.);
#318=ORIENTED_EDGE('',*,*,#404,.T.);
#319=ORIENTED_EDGE('',*,*,#542,.T.);
#320=ORIENTED_EDGE('',*,*,#395,.F.);
#321=ORIENTED_EDGE('',*,*,#546,.F.);
#322=ORIENTED_EDGE('',*,*,#413,.T.);
#323=ORIENTED_EDGE('',*,*,#547,.T.);
#324=ORIENTED_EDGE('',*,*,#400,.F.);
#325=ORIENTED_EDGE('',*,*,#548,.F.);
#326=ORIENTED_EDGE('',*,*,#414,.T.);
#327=ORIENTED_EDGE('',*,*,#546,.T.);
#328=ORIENTED_EDGE('',*,*,#399,.F.);
#329=ORIENTED_EDGE('',*,*,#549,.F.);
#330=ORIENTED_EDGE('',*,*,#415,.T.);
#331=ORIENTED_EDGE('',*,*,#548,.T.);
#332=ORIENTED_EDGE('',*,*,#402,.F.);
#333=ORIENTED_EDGE('',*,*,#547,.F.);
#334=ORIENTED_EDGE('',*,*,#416,.T.);
#335=ORIENTED_EDGE('',*,*,#549,.T.);
#336=ORIENTED_EDGE('',*,*,#401,.F.);
#337=ORIENTED_EDGE('',*,*,#441,.F.);
#338=ORIENTED_EDGE('',*,*,#474,.F.);
#339=ORIENTED_EDGE('',*,*,#491,.F.);
#340=ORIENTED_EDGE('',*,*,#508,.F.);
#341=ORIENTED_EDGE('',*,*,#458,.F.);
#342=ORIENTED_EDGE('',*,*,#510,.F.);
#343=ORIENTED_EDGE('',*,*,#492,.F.);
#344=ORIENTED_EDGE('',*,*,#475,.F.);
#345=ORIENTED_EDGE('',*,*,#408,.F.);
#346=ORIENTED_EDGE('',*,*,#428,.F.);
#347=ORIENTED_EDGE('',*,*,#390,.F.);
#348=ORIENTED_EDGE('',*,*,#511,.F.);
#349=ORIENTED_EDGE('',*,*,#412,.F.);
#350=ORIENTED_EDGE('',*,*,#509,.F.);
#351=ORIENTED_EDGE('',*,*,#392,.F.);
#352=ORIENTED_EDGE('',*,*,#429,.F.);
#353=ORIENTED_EDGE('',*,*,#507,.F.);
#354=ORIENTED_EDGE('',*,*,#540,.F.);
#355=ORIENTED_EDGE('',*,*,#443,.F.);
#356=ORIENTED_EDGE('',*,*,#538,.F.);
#357=ORIENTED_EDGE('',*,*,#427,.F.);
#358=ORIENTED_EDGE('',*,*,#418,.F.);
#359=ORIENTED_EDGE('',*,*,#539,.F.);
#360=ORIENTED_EDGE('',*,*,#449,.F.);
#361=ORIENTED_EDGE('',*,*,#536,.F.);
#362=ORIENTED_EDGE('',*,*,#501,.F.);
#363=ORIENTED_EDGE('',*,*,#503,.F.);
#364=ORIENTED_EDGE('',*,*,#537,.F.);
#365=ORIENTED_EDGE('',*,*,#447,.F.);
#366=ORIENTED_EDGE('',*,*,#534,.F.);
#367=ORIENTED_EDGE('',*,*,#505,.F.);
#368=ORIENTED_EDGE('',*,*,#535,.F.);
#369=ORIENTED_EDGE('',*,*,#445,.F.);
#370=ORIENTED_EDGE('',*,*,#541,.F.);
#371=ORIENTED_EDGE('',*,*,#422,.F.);
#372=ORIENTED_EDGE('',*,*,#516,.F.);
#373=ORIENTED_EDGE('',*,*,#456,.F.);
#374=ORIENTED_EDGE('',*,*,#518,.F.);
#375=ORIENTED_EDGE('',*,*,#494,.F.);
#376=ORIENTED_EDGE('',*,*,#500,.F.);
#377=ORIENTED_EDGE('',*,*,#514,.F.);
#378=ORIENTED_EDGE('',*,*,#450,.F.);
#379=ORIENTED_EDGE('',*,*,#517,.F.);
#380=ORIENTED_EDGE('',*,*,#420,.F.);
#381=ORIENTED_EDGE('',*,*,#498,.F.);
#382=ORIENTED_EDGE('',*,*,#512,.F.);
#383=ORIENTED_EDGE('',*,*,#452,.F.);
#384=ORIENTED_EDGE('',*,*,#515,.F.);
#385=ORIENTED_EDGE('',*,*,#496,.F.);
#386=ORIENTED_EDGE('',*,*,#519,.F.);
#387=ORIENTED_EDGE('',*,*,#454,.F.);
#388=ORIENTED_EDGE('',*,*,#513,.F.);
#389=EDGE_CURVE('',#550,#551,#656,.T.);
#390=EDGE_CURVE('',#550,#552,#51,.T.);
#391=EDGE_CURVE('',#553,#552,#657,.T.);
#392=EDGE_CURVE('',#553,#554,#52,.T.);
#393=EDGE_CURVE('',#554,#555,#658,.T.);
#394=EDGE_CURVE('',#555,#551,#659,.T.);
#395=EDGE_CURVE('',#556,#557,#660,.T.);
#396=EDGE_CURVE('',#557,#558,#33,.F.);
#397=EDGE_CURVE('',#558,#559,#661,.T.);
#398=EDGE_CURVE('',#559,#556,#34,.F.);
#399=EDGE_CURVE('',#560,#561,#662,.T.);
#400=EDGE_CURVE('',#561,#562,#35,.F.);
#401=EDGE_CURVE('',#562,#563,#663,.T.);
#402=EDGE_CURVE('',#563,#560,#36,.F.);
#403=EDGE_CURVE('',#564,#565,#37,.F.);
#404=EDGE_CURVE('',#566,#564,#664,.T.);
#405=EDGE_CURVE('',#567,#566,#38,.F.);
#406=EDGE_CURVE('',#565,#567,#665,.T.);
#407=EDGE_CURVE('',#568,#569,#666,.T.);
#408=EDGE_CURVE('',#569,#570,#53,.F.);
#409=EDGE_CURVE('',#570,#571,#667,.T.);
#410=EDGE_CURVE('',#572,#571,#668,.T.);
#411=EDGE_CURVE('',#573,#572,#669,.T.);
#412=EDGE_CURVE('',#573,#568,#54,.F.);
#413=EDGE_CURVE('',#574,#575,#39,.F.);
#414=EDGE_CURVE('',#576,#574,#670,.T.);
#415=EDGE_CURVE('',#577,#576,#40,.F.);
#416=EDGE_CURVE('',#575,#577,#671,.T.);
#417=EDGE_CURVE('',#578,#579,#672,.F.);
#418=EDGE_CURVE('',#578,#580,#55,.T.);
#419=EDGE_CURVE('',#580,#581,#673,.T.);
#420=EDGE_CURVE('',#581,#582,#56,.T.);
#421=EDGE_CURVE('',#583,#582,#674,.F.);
#422=EDGE_CURVE('',#583,#584,#57,.F.);
#423=EDGE_CURVE('',#584,#585,#675,.T.);
#424=EDGE_CURVE('',#551,#585,#41,.T.);
#425=EDGE_CURVE('',#555,#586,#42,.T.);
#426=EDGE_CURVE('',#586,#587,#676,.T.);
#427=EDGE_CURVE('',#587,#579,#58,.F.);
#428=EDGE_CURVE('',#552,#569,#677,.F.);
#429=EDGE_CURVE('',#568,#553,#678,.T.);
#430=EDGE_CURVE('',#588,#571,#43,.T.);
#431=EDGE_CURVE('',#589,#588,#679,.T.);
#432=EDGE_CURVE('',#589,#572,#44,.T.);
#433=EDGE_CURVE('',#588,#590,#45,.T.);
#434=EDGE_CURVE('',#591,#590,#680,.T.);
#435=EDGE_CURVE('',#592,#591,#681,.T.);
#436=EDGE_CURVE('',#593,#592,#682,.T.);
#437=EDGE_CURVE('',#594,#593,#683,.T.);
#438=EDGE_CURVE('',#595,#594,#684,.T.);
#439=EDGE_CURVE('',#589,#595,#46,.T.);
#440=EDGE_CURVE('',#596,#597,#685,.T.);
#441=EDGE_CURVE('',#596,#598,#47,.T.);
#442=EDGE_CURVE('',#598,#595,#686,.T.);
#443=EDGE_CURVE('',#594,#599,#687,.T.);
#444=EDGE_CURVE('',#599,#600,#688,.T.);
#445=EDGE_CURVE('',#600,#601,#689,.T.);
#446=EDGE_CURVE('',#602,#601,#690,.T.);
#447=EDGE_CURVE('',#602,#603,#691,.F.);
#448=EDGE_CURVE('',#604,#603,#692,.T.);
#449=EDGE_CURVE('',#604,#593,#693,.F.);
#450=EDGE_CURVE('',#592,#605,#694,.F.);
#451=EDGE_CURVE('',#606,#605,#695,.T.);
#452=EDGE_CURVE('',#606,#607,#696,.F.);
#453=EDGE_CURVE('',#608,#607,#697,.T.);
#454=EDGE_CURVE('',#608,#609,#698,.T.);
#455=EDGE_CURVE('',#609,#610,#699,.T.);
#456=EDGE_CURVE('',#610,#591,#700,.T.);
#457=EDGE_CURVE('',#611,#590,#701,.T.);
#458=EDGE_CURVE('',#611,#597,#48,.T.);
#459=EDGE_CURVE('',#612,#613,#59,.T.);
#460=EDGE_CURVE('',#612,#614,#702,.T.);
#461=EDGE_CURVE('',#615,#614,#703,.T.);
#462=EDGE_CURVE('',#616,#615,#60,.T.);
#463=EDGE_CURVE('',#616,#617,#704,.T.);
#464=EDGE_CURVE('',#618,#617,#14,.T.);
#465=EDGE_CURVE('',#613,#618,#705,.T.);
#466=EDGE_CURVE('',#619,#620,#61,.T.);
#467=EDGE_CURVE('',#621,#619,#706,.T.);
#468=EDGE_CURVE('',#622,#621,#15,.T.);
#469=EDGE_CURVE('',#622,#623,#707,.T.);
#470=EDGE_CURVE('',#624,#623,#62,.T.);
#471=EDGE_CURVE('',#625,#624,#708,.T.);
#472=EDGE_CURVE('',#625,#620,#709,.T.);
#473=EDGE_CURVE('',#626,#627,#710,.T.);
#474=EDGE_CURVE('',#626,#596,#711,.F.);
#475=EDGE_CURVE('',#597,#627,#712,.T.);
#476=EDGE_CURVE('',#628,#629,#713,.T.);
#477=EDGE_CURVE('',#628,#630,#63,.T.);
#478=EDGE_CURVE('',#630,#631,#714,.T.);
#479=EDGE_CURVE('',#631,#632,#16,.T.);
#480=EDGE_CURVE('',#633,#632,#715,.T.);
#481=EDGE_CURVE('',#633,#634,#64,.T.);
#482=EDGE_CURVE('',#634,#629,#716,.T.);
#483=EDGE_CURVE('',#635,#636,#717,.T.);
#484=EDGE_CURVE('',#636,#637,#65,.T.);
#485=EDGE_CURVE('',#638,#637,#718,.T.);
#486=EDGE_CURVE('',#638,#639,#719,.T.);
#487=EDGE_CURVE('',#639,#640,#66,.T.);
#488=EDGE_CURVE('',#641,#640,#720,.T.);
#489=EDGE_CURVE('',#641,#635,#17,.T.);
#490=EDGE_CURVE('',#642,#586,#721,.T.);
#491=EDGE_CURVE('',#642,#626,#49,.F.);
#492=EDGE_CURVE('',#627,#643,#50,.F.);
#493=EDGE_CURVE('',#643,#585,#722,.T.);
#494=EDGE_CURVE('',#584,#644,#723,.T.);
#495=EDGE_CURVE('',#645,#644,#724,.T.);
#496=EDGE_CURVE('',#645,#646,#725,.T.);
#497=EDGE_CURVE('',#646,#647,#726,.T.);
#498=EDGE_CURVE('',#647,#648,#727,.F.);
#499=EDGE_CURVE('',#648,#649,#728,.T.);
#500=EDGE_CURVE('',#649,#581,#729,.F.);
#501=EDGE_CURVE('',#580,#650,#730,.F.);
#502=EDGE_CURVE('',#650,#651,#731,.T.);
#503=EDGE_CURVE('',#651,#652,#732,.F.);
#504=EDGE_CURVE('',#652,#653,#733,.T.);
#505=EDGE_CURVE('',#653,#654,#734,.T.);
#506=EDGE_CURVE('',#655,#654,#735,.T.);
#507=EDGE_CURVE('',#655,#587,#736,.T.);
#508=EDGE_CURVE('',#598,#642,#737,.T.);
#509=EDGE_CURVE('',#554,#573,#738,.F.);
#510=EDGE_CURVE('',#643,#611,#739,.F.);
#511=EDGE_CURVE('',#570,#550,#740,.T.);
#512=EDGE_CURVE('',#607,#647,#741,.T.);
#513=EDGE_CURVE('',#646,#608,#742,.T.);
#514=EDGE_CURVE('',#605,#649,#743,.T.);
#515=EDGE_CURVE('',#648,#606,#744,.T.);
#516=EDGE_CURVE('',#591,#583,#745,.T.);
#517=EDGE_CURVE('',#582,#592,#746,.T.);
#518=EDGE_CURVE('',#644,#610,#747,.T.);
#519=EDGE_CURVE('',#609,#645,#748,.T.);
#520=EDGE_CURVE('',#637,#620,#749,.T.);
#521=EDGE_CURVE('',#636,#619,#750,.T.);
#522=EDGE_CURVE('',#638,#625,#751,.T.);
#523=EDGE_CURVE('',#639,#624,#752,.T.);
#524=EDGE_CURVE('',#640,#623,#753,.T.);
#525=EDGE_CURVE('',#641,#622,#754,.T.);
#526=EDGE_CURVE('',#635,#621,#755,.T.);
#527=EDGE_CURVE('',#630,#613,#756,.T.);
#528=EDGE_CURVE('',#628,#612,#757,.T.);
#529=EDGE_CURVE('',#629,#614,#758,.T.);
#530=EDGE_CURVE('',#634,#615,#759,.T.);
#531=EDGE_CURVE('',#633,#616,#760,.T.);
#532=EDGE_CURVE('',#632,#617,#761,.T.);
#533=EDGE_CURVE('',#631,#618,#762,.T.);
#534=EDGE_CURVE('',#652,#602,#763,.T.);
#535=EDGE_CURVE('',#601,#653,#764,.T.);
#536=EDGE_CURVE('',#650,#604,#765,.T.);
#537=EDGE_CURVE('',#603,#651,#766,.T.);
#538=EDGE_CURVE('',#579,#594,#767,.T.);
#539=EDGE_CURVE('',#593,#578,#768,.T.);
#540=EDGE_CURVE('',#599,#655,#769,.T.);
#541=EDGE_CURVE('',#654,#600,#770,.T.);
#542=EDGE_CURVE('',#564,#557,#771,.T.);
#543=EDGE_CURVE('',#565,#558,#772,.T.);
#544=EDGE_CURVE('',#567,#559,#773,.T.);
#545=EDGE_CURVE('',#566,#556,#774,.T.);
#546=EDGE_CURVE('',#574,#561,#775,.T.);
#547=EDGE_CURVE('',#575,#562,#776,.T.);
#548=EDGE_CURVE('',#576,#560,#777,.T.);
#549=EDGE_CURVE('',#577,#563,#778,.T.);
#550=VERTEX_POINT('',#1509);
#551=VERTEX_POINT('',#1510);
#552=VERTEX_POINT('',#1512);
#553=VERTEX_POINT('',#1514);
#554=VERTEX_POINT('',#1516);
#555=VERTEX_POINT('',#1518);
#556=VERTEX_POINT('',#1521);
#557=VERTEX_POINT('',#1522);
#558=VERTEX_POINT('',#1524);
#559=VERTEX_POINT('',#1526);
#560=VERTEX_POINT('',#1529);
#561=VERTEX_POINT('',#1530);
#562=VERTEX_POINT('',#1532);
#563=VERTEX_POINT('',#1534);
#564=VERTEX_POINT('',#1538);
#565=VERTEX_POINT('',#1539);
#566=VERTEX_POINT('',#1541);
#567=VERTEX_POINT('',#1543);
#568=VERTEX_POINT('',#1546);
#569=VERTEX_POINT('',#1547);
#570=VERTEX_POINT('',#1549);
#571=VERTEX_POINT('',#1551);
#572=VERTEX_POINT('',#1553);
#573=VERTEX_POINT('',#1555);
#574=VERTEX_POINT('',#1558);
#575=VERTEX_POINT('',#1559);
#576=VERTEX_POINT('',#1561);
#577=VERTEX_POINT('',#1563);
#578=VERTEX_POINT('',#1567);
#579=VERTEX_POINT('',#1568);
#580=VERTEX_POINT('',#1570);
#581=VERTEX_POINT('',#1572);
#582=VERTEX_POINT('',#1574);
#583=VERTEX_POINT('',#1576);
#584=VERTEX_POINT('',#1578);
#585=VERTEX_POINT('',#1580);
#586=VERTEX_POINT('',#1583);
#587=VERTEX_POINT('',#1585);
#588=VERTEX_POINT('',#1592);
#589=VERTEX_POINT('',#1594);
#590=VERTEX_POINT('',#1598);
#591=VERTEX_POINT('',#1600);
#592=VERTEX_POINT('',#1602);
#593=VERTEX_POINT('',#1604);
#594=VERTEX_POINT('',#1606);
#595=VERTEX_POINT('',#1608);
#596=VERTEX_POINT('',#1612);
#597=VERTEX_POINT('',#1613);
#598=VERTEX_POINT('',#1615);
#599=VERTEX_POINT('',#1618);
#600=VERTEX_POINT('',#1620);
#601=VERTEX_POINT('',#1622);
#602=VERTEX_POINT('',#1624);
#603=VERTEX_POINT('',#1626);
#604=VERTEX_POINT('',#1628);
#605=VERTEX_POINT('',#1631);
#606=VERTEX_POINT('',#1633);
#607=VERTEX_POINT('',#1635);
#608=VERTEX_POINT('',#1637);
#609=VERTEX_POINT('',#1639);
#610=VERTEX_POINT('',#1641);
#611=VERTEX_POINT('',#1644);
#612=VERTEX_POINT('',#1647);
#613=VERTEX_POINT('',#1648);
#614=VERTEX_POINT('',#1650);
#615=VERTEX_POINT('',#1652);
#616=VERTEX_POINT('',#1654);
#617=VERTEX_POINT('',#1656);
#618=VERTEX_POINT('',#1664);
#619=VERTEX_POINT('',#1667);
#620=VERTEX_POINT('',#1668);
#621=VERTEX_POINT('',#1670);
#622=VERTEX_POINT('',#1678);
#623=VERTEX_POINT('',#1680);
#624=VERTEX_POINT('',#1682);
#625=VERTEX_POINT('',#1684);
#626=VERTEX_POINT('',#1688);
#627=VERTEX_POINT('',#1689);
#628=VERTEX_POINT('',#1694);
#629=VERTEX_POINT('',#1695);
#630=VERTEX_POINT('',#1697);
#631=VERTEX_POINT('',#1699);
#632=VERTEX_POINT('',#1707);
#633=VERTEX_POINT('',#1709);
#634=VERTEX_POINT('',#1711);
#635=VERTEX_POINT('',#1714);
#636=VERTEX_POINT('',#1715);
#637=VERTEX_POINT('',#1717);
#638=VERTEX_POINT('',#1719);
#639=VERTEX_POINT('',#1721);
#640=VERTEX_POINT('',#1723);
#641=VERTEX_POINT('',#1725);
#642=VERTEX_POINT('',#1734);
#643=VERTEX_POINT('',#1737);
#644=VERTEX_POINT('',#1740);
#645=VERTEX_POINT('',#1742);
#646=VERTEX_POINT('',#1744);
#647=VERTEX_POINT('',#1746);
#648=VERTEX_POINT('',#1748);
#649=VERTEX_POINT('',#1750);
#650=VERTEX_POINT('',#1753);
#651=VERTEX_POINT('',#1755);
#652=VERTEX_POINT('',#1757);
#653=VERTEX_POINT('',#1759);
#654=VERTEX_POINT('',#1761);
#655=VERTEX_POINT('',#1763);
#656=LINE('',#1508,#779);
#657=LINE('',#1513,#780);
#658=LINE('',#1517,#781);
#659=LINE('',#1519,#782);
#660=LINE('',#1520,#783);
#661=LINE('',#1525,#784);
#662=LINE('',#1528,#785);
#663=LINE('',#1533,#786);
#664=LINE('',#1540,#787);
#665=LINE('',#1544,#788);
#666=LINE('',#1545,#789);
#667=LINE('',#1550,#790);
#668=LINE('',#1552,#791);
#669=LINE('',#1554,#792);
#670=LINE('',#1560,#793);
#671=LINE('',#1564,#794);
#672=LINE('',#1566,#795);
#673=LINE('',#1571,#796);
#674=LINE('',#1575,#797);
#675=LINE('',#1579,#798);
#676=LINE('',#1584,#799);
#677=LINE('',#1588,#800);
#678=LINE('',#1589,#801);
#679=LINE('',#1593,#802);
#680=LINE('',#1599,#803);
#681=LINE('',#1601,#804);
#682=LINE('',#1603,#805);
#683=LINE('',#1605,#806);
#684=LINE('',#1607,#807);
#685=LINE('',#1611,#808);
#686=LINE('',#1616,#809);
#687=LINE('',#1617,#810);
#688=LINE('',#1619,#811);
#689=LINE('',#1621,#812);
#690=LINE('',#1623,#813);
#691=LINE('',#1625,#814);
#692=LINE('',#1627,#815);
#693=LINE('',#1629,#816);
#694=LINE('',#1630,#817);
#695=LINE('',#1632,#818);
#696=LINE('',#1634,#819);
#697=LINE('',#1636,#820);
#698=LINE('',#1638,#821);
#699=LINE('',#1640,#822);
#700=LINE('',#1642,#823);
#701=LINE('',#1643,#824);
#702=LINE('',#1649,#825);
#703=LINE('',#1651,#826);
#704=LINE('',#1655,#827);
#705=LINE('',#1665,#828);
#706=LINE('',#1669,#829);
#707=LINE('',#1679,#830);
#708=LINE('',#1683,#831);
#709=LINE('',#1685,#832);
#710=LINE('',#1687,#833);
#711=LINE('',#1690,#834);
#712=LINE('',#1691,#835);
#713=LINE('',#1693,#836);
#714=LINE('',#1698,#837);
#715=LINE('',#1708,#838);
#716=LINE('',#1712,#839);
#717=LINE('',#1713,#840);
#718=LINE('',#1718,#841);
#719=LINE('',#1720,#842);
#720=LINE('',#1724,#843);
#721=LINE('',#1733,#844);
#722=LINE('',#1738,#845);
#723=LINE('',#1739,#846);
#724=LINE('',#1741,#847);
#725=LINE('',#1743,#848);
#726=LINE('',#1745,#849);
#727=LINE('',#1747,#850);
#728=LINE('',#1749,#851);
#729=LINE('',#1751,#852);
#730=LINE('',#1752,#853);
#731=LINE('',#1754,#854);
#732=LINE('',#1756,#855);
#733=LINE('',#1758,#856);
#734=LINE('',#1760,#857);
#735=LINE('',#1762,#858);
#736=LINE('',#1764,#859);
#737=LINE('',#1766,#860);
#738=LINE('',#1767,#861);
#739=LINE('',#1769,#862);
#740=LINE('',#1770,#863);
#741=LINE('',#1772,#864);
#742=LINE('',#1773,#865);
#743=LINE('',#1775,#866);
#744=LINE('',#1776,#867);
#745=LINE('',#1778,#868);
#746=LINE('',#1779,#869);
#747=LINE('',#1781,#870);
#748=LINE('',#1782,#871);
#749=LINE('',#1784,#872);
#750=LINE('',#1785,#873);
#751=LINE('',#1787,#874);
#752=LINE('',#1789,#875);
#753=LINE('',#1791,#876);
#754=LINE('',#1793,#877);
#755=LINE('',#1808,#878);
#756=LINE('',#1811,#879);
#757=LINE('',#1812,#880);
#758=LINE('',#1814,#881);
#759=LINE('',#1816,#882);
#760=LINE('',#1818,#883);
#761=LINE('',#1820,#884);
#762=LINE('',#1835,#885);
#763=LINE('',#1838,#886);
#764=LINE('',#1839,#887);
#765=LINE('',#1841,#888);
#766=LINE('',#1842,#889);
#767=LINE('',#1844,#890);
#768=LINE('',#1845,#891);
#769=LINE('',#1847,#892);
#770=LINE('',#1848,#893);
#771=LINE('',#1850,#894);
#772=LINE('',#1851,#895);
#773=LINE('',#1853,#896);
#774=LINE('',#1855,#897);
#775=LINE('',#1858,#898);
#776=LINE('',#1859,#899);
#777=LINE('',#1861,#900);
#778=LINE('',#1863,#901);
#779=VECTOR('',#1215,1.);
#780=VECTOR('',#1218,1.);
#781=VECTOR('',#1221,1.);
#782=VECTOR('',#1222,1.);
#783=VECTOR('',#1223,1.);
#784=VECTOR('',#1226,1.);
#785=VECTOR('',#1229,1.);
#786=VECTOR('',#1232,1.);
#787=VECTOR('',#1239,1.);
#788=VECTOR('',#1242,1.);
#789=VECTOR('',#1243,1.);
#790=VECTOR('',#1246,1.);
#791=VECTOR('',#1247,1.);
#792=VECTOR('',#1248,1.);
#793=VECTOR('',#1253,1.);
#794=VECTOR('',#1256,1.);
#795=VECTOR('',#1259,1.);
#796=VECTOR('',#1262,1.);
#797=VECTOR('',#1265,1.);
#798=VECTOR('',#1268,1.);
#799=VECTOR('',#1273,1.);
#800=VECTOR('',#1278,1.);
#801=VECTOR('',#1279,1.);
#802=VECTOR('',#1284,1.);
#803=VECTOR('',#1291,1.);
#804=VECTOR('',#1292,1.);
#805=VECTOR('',#1293,1.);
#806=VECTOR('',#1294,1.);
#807=VECTOR('',#1295,1.);
#808=VECTOR('',#1300,1.);
#809=VECTOR('',#1303,1.);
#810=VECTOR('',#1304,1.);
#811=VECTOR('',#1305,1.);
#812=VECTOR('',#1306,1.);
#813=VECTOR('',#1307,1.);
#814=VECTOR('',#1308,1.);
#815=VECTOR('',#1309,1.);
#816=VECTOR('',#1310,1.);
#817=VECTOR('',#1311,1.);
#818=VECTOR('',#1312,1.);
#819=VECTOR('',#1313,1.);
#820=VECTOR('',#1314,1.);
#821=VECTOR('',#1315,1.);
#822=VECTOR('',#1316,1.);
#823=VECTOR('',#1317,1.);
#824=VECTOR('',#1318,1.);
#825=VECTOR('',#1323,1.);
#826=VECTOR('',#1324,1.);
#827=VECTOR('',#1327,1.);
#828=VECTOR('',#1328,1.);
#829=VECTOR('',#1331,1.);
#830=VECTOR('',#1332,1.);
#831=VECTOR('',#1335,1.);
#832=VECTOR('',#1336,1.);
#833=VECTOR('',#1339,1.);
#834=VECTOR('',#1340,1.);
#835=VECTOR('',#1341,1.);
#836=VECTOR('',#1344,1.);
#837=VECTOR('',#1347,1.);
#838=VECTOR('',#1348,1.);
#839=VECTOR('',#1351,1.);
#840=VECTOR('',#1352,1.);
#841=VECTOR('',#1355,1.);
#842=VECTOR('',#1356,1.);
#843=VECTOR('',#1359,1.);
#844=VECTOR('',#1360,1.);
#845=VECTOR('',#1365,1.);
#846=VECTOR('',#1366,1.);
#847=VECTOR('',#1367,1.);
#848=VECTOR('',#1368,1.);
#849=VECTOR('',#1369,1.);
#850=VECTOR('',#1370,1.);
#851=VECTOR('',#1371,1.);
#852=VECTOR('',#1372,1.);
#853=VECTOR('',#1373,1.);
#854=VECTOR('',#1374,1.);
#855=VECTOR('',#1375,1.);
#856=VECTOR('',#1376,1.);
#857=VECTOR('',#1377,1.);
#858=VECTOR('',#1378,1.);
#859=VECTOR('',#1379,1.);
#860=VECTOR('',#1382,1.);
#861=VECTOR('',#1383,1.);
#862=VECTOR('',#1386,1.);
#863=VECTOR('',#1387,1.);
#864=VECTOR('',#1390,1.);
#865=VECTOR('',#1391,1.);
#866=VECTOR('',#1394,1.);
#867=VECTOR('',#1395,1.);
#868=VECTOR('',#1398,1.);
#869=VECTOR('',#1399,1.);
#870=VECTOR('',#1402,1.);
#871=VECTOR('',#1403,1.);
#872=VECTOR('',#1406,1.);
#873=VECTOR('',#1407,1.);
#874=VECTOR('',#1410,1.);
#875=VECTOR('',#1413,1.);
#876=VECTOR('',#1416,1.);
#877=VECTOR('',#1419,1.);
#878=VECTOR('',#1420,1.);
#879=VECTOR('',#1425,1.);
#880=VECTOR('',#1426,1.);
#881=VECTOR('',#1429,1.);
#882=VECTOR('',#1432,1.);
#883=VECTOR('',#1435,1.);
#884=VECTOR('',#1438,1.);
#885=VECTOR('',#1439,1.);
#886=VECTOR('',#1444,1.);
#887=VECTOR('',#1445,1.);
#888=VECTOR('',#1448,1.);
#889=VECTOR('',#1449,1.);
#890=VECTOR('',#1452,1.);
#891=VECTOR('',#1453,1.);
#892=VECTOR('',#1456,1.);
#893=VECTOR('',#1457,1.);
#894=VECTOR('',#1460,1.);
#895=VECTOR('',#1461,1.);
#896=VECTOR('',#1464,1.);
#897=VECTOR('',#1467,1.);
#898=VECTOR('',#1472,1.);
#899=VECTOR('',#1473,1.);
#900=VECTOR('',#1476,1.);
#901=VECTOR('',#1479,1.);
#902=EDGE_LOOP('',(#67,#68,#69,#70,#71,#72));
#903=EDGE_LOOP('',(#73,#74,#75,#76));
#904=EDGE_LOOP('',(#77,#78,#79,#80));
#905=EDGE_LOOP('',(#81,#82,#83,#84));
#906=EDGE_LOOP('',(#85,#86,#87,#88,#89,#90));
#907=EDGE_LOOP('',(#91,#92,#93,#94));
#908=EDGE_LOOP('',(#95,#96,#97,#98,#99,#100,#101,#102,#103,#104,#105,#106));
#909=EDGE_LOOP('',(#107,#108,#109,#110));
#910=EDGE_LOOP('',(#111,#112,#113,#114));
#911=EDGE_LOOP('',(#115,#116,#117,#118,#119,#120,#121,#122));
#912=EDGE_LOOP('',(#123,#124,#125,#126,#127,#128,#129,#130,#131,#132,#133,
#134,#135,#136,#137,#138,#139,#140,#141,#142,#143,#144));
#913=EDGE_LOOP('',(#145,#146,#147,#148,#149,#150,#151));
#914=EDGE_LOOP('',(#152,#153,#154,#155,#156,#157,#158));
#915=EDGE_LOOP('',(#159,#160,#161,#162));
#916=EDGE_LOOP('',(#163,#164,#165,#166,#167,#168,#169));
#917=EDGE_LOOP('',(#170,#171,#172,#173,#174,#175,#176));
#918=EDGE_LOOP('',(#177,#178,#179,#180,#181,#182,#183,#184,#185,#186,#187,
#188,#189,#190,#191,#192,#193,#194,#195,#196,#197,#198));
#919=EDGE_LOOP('',(#199,#200,#201,#202,#203,#204,#205,#206,#207));
#920=EDGE_LOOP('',(#208,#209,#210,#211,#212,#213,#214,#215,#216));
#921=EDGE_LOOP('',(#217,#218,#219,#220));
#922=EDGE_LOOP('',(#221,#222,#223,#224));
#923=EDGE_LOOP('',(#225,#226,#227,#228));
#924=EDGE_LOOP('',(#229,#230,#231,#232));
#925=EDGE_LOOP('',(#233,#234,#235,#236));
#926=EDGE_LOOP('',(#237,#238,#239,#240));
#927=EDGE_LOOP('',(#241,#242,#243,#244));
#928=EDGE_LOOP('',(#245,#246,#247,#248));
#929=EDGE_LOOP('',(#249,#250,#251,#252));
#930=EDGE_LOOP('',(#253,#254,#255,#256));
#931=EDGE_LOOP('',(#257,#258,#259,#260));
#932=EDGE_LOOP('',(#261,#262,#263,#264));
#933=EDGE_LOOP('',(#265,#266,#267,#268));
#934=EDGE_LOOP('',(#269,#270,#271,#272));
#935=EDGE_LOOP('',(#273,#274,#275,#276));
#936=EDGE_LOOP('',(#277,#278,#279,#280));
#937=EDGE_LOOP('',(#281,#282,#283,#284));
#938=EDGE_LOOP('',(#285,#286,#287,#288));
#939=EDGE_LOOP('',(#289,#290,#291,#292));
#940=EDGE_LOOP('',(#293,#294,#295,#296));
#941=EDGE_LOOP('',(#297,#298,#299,#300));
#942=EDGE_LOOP('',(#301,#302,#303,#304));
#943=EDGE_LOOP('',(#305,#306,#307,#308));
#944=EDGE_LOOP('',(#309,#310,#311,#312));
#945=EDGE_LOOP('',(#313,#314,#315,#316));
#946=EDGE_LOOP('',(#317,#318,#319,#320));
#947=EDGE_LOOP('',(#321,#322,#323,#324));
#948=EDGE_LOOP('',(#325,#326,#327,#328));
#949=EDGE_LOOP('',(#329,#330,#331,#332));
#950=EDGE_LOOP('',(#333,#334,#335,#336));
#951=EDGE_LOOP('',(#337,#338,#339,#340));
#952=EDGE_LOOP('',(#341,#342,#343,#344));
#953=EDGE_LOOP('',(#345,#346,#347,#348));
#954=EDGE_LOOP('',(#349,#350,#351,#352));
#955=EDGE_LOOP('',(#353,#354,#355,#356,#357));
#956=EDGE_LOOP('',(#358,#359,#360,#361,#362));
#957=EDGE_LOOP('',(#363,#364,#365,#366));
#958=EDGE_LOOP('',(#367,#368,#369,#370));
#959=EDGE_LOOP('',(#371,#372,#373,#374,#375));
#960=EDGE_LOOP('',(#376,#377,#378,#379,#380));
#961=EDGE_LOOP('',(#381,#382,#383,#384));
#962=EDGE_LOOP('',(#385,#386,#387,#388));
#963=FACE_BOUND('',#902,.T.);
#964=FACE_BOUND('',#903,.T.);
#965=FACE_BOUND('',#904,.T.);
#966=FACE_BOUND('',#905,.T.);
#967=FACE_BOUND('',#906,.T.);
#968=FACE_BOUND('',#907,.T.);
#969=FACE_BOUND('',#908,.T.);
#970=FACE_BOUND('',#909,.T.);
#971=FACE_BOUND('',#910,.T.);
#972=FACE_BOUND('',#911,.T.);
#973=FACE_BOUND('',#912,.T.);
#974=FACE_BOUND('',#913,.T.);
#975=FACE_BOUND('',#914,.T.);
#976=FACE_BOUND('',#915,.T.);
#977=FACE_BOUND('',#916,.T.);
#978=FACE_BOUND('',#917,.T.);
#979=FACE_BOUND('',#918,.T.);
#980=FACE_BOUND('',#919,.T.);
#981=FACE_BOUND('',#920,.T.);
#982=FACE_BOUND('',#921,.T.);
#983=FACE_BOUND('',#922,.T.);
#984=FACE_BOUND('',#923,.T.);
#985=FACE_BOUND('',#924,.T.);
#986=FACE_BOUND('',#925,.T.);
#987=FACE_BOUND('',#926,.T.);
#988=FACE_BOUND('',#927,.T.);
#989=FACE_BOUND('',#928,.T.);
#990=FACE_BOUND('',#929,.T.);
#991=FACE_BOUND('',#930,.T.);
#992=FACE_BOUND('',#931,.T.);
#993=FACE_BOUND('',#932,.T.);
#994=FACE_BOUND('',#933,.T.);
#995=FACE_BOUND('',#934,.T.);
#996=FACE_BOUND('',#935,.T.);
#997=FACE_BOUND('',#936,.T.);
#998=FACE_BOUND('',#937,.T.);
#999=FACE_BOUND('',#938,.T.);
#1000=FACE_BOUND('',#939,.T.);
#1001=FACE_BOUND('',#940,.T.);
#1002=FACE_BOUND('',#941,.T.);
#1003=FACE_BOUND('',#942,.T.);
#1004=FACE_BOUND('',#943,.T.);
#1005=FACE_BOUND('',#944,.T.);
#1006=FACE_BOUND('',#945,.T.);
#1007=FACE_BOUND('',#946,.T.);
#1008=FACE_BOUND('',#947,.T.);
#1009=FACE_BOUND('',#948,.T.);
#1010=FACE_BOUND('',#949,.T.);
#1011=FACE_BOUND('',#950,.T.);
#1012=FACE_BOUND('',#951,.T.);
#1013=FACE_BOUND('',#952,.T.);
#1014=FACE_BOUND('',#953,.T.);
#1015=FACE_BOUND('',#954,.T.);
#1016=FACE_BOUND('',#955,.T.);
#1017=FACE_BOUND('',#956,.T.);
#1018=FACE_BOUND('',#957,.T.);
#1019=FACE_BOUND('',#958,.T.);
#1020=FACE_BOUND('',#959,.T.);
#1021=FACE_BOUND('',#960,.T.);
#1022=FACE_BOUND('',#961,.T.);
#1023=FACE_BOUND('',#962,.T.);
#1024=PLANE('',#1126);
#1025=PLANE('',#1133);
#1026=PLANE('',#1147);
#1027=PLANE('',#1154);
#1028=PLANE('',#1161);
#1029=PLANE('',#1162);
#1030=PLANE('',#1169);
#1031=PLANE('',#1170);
#1032=PLANE('',#1171);
#1033=PLANE('',#1172);
#1034=PLANE('',#1173);
#1035=PLANE('',#1174);
#1036=PLANE('',#1176);
#1037=PLANE('',#1177);
#1038=PLANE('',#1179);
#1039=PLANE('',#1180);
#1040=PLANE('',#1182);
#1041=PLANE('',#1183);
#1042=PLANE('',#1185);
#1043=PLANE('',#1186);
#1044=PLANE('',#1187);
#1045=PLANE('',#1188);
#1046=PLANE('',#1189);
#1047=PLANE('',#1190);
#1048=PLANE('',#1192);
#1049=PLANE('',#1194);
#1050=PLANE('',#1196);
#1051=PLANE('',#1198);
#1052=PLANE('',#1203);
#1053=PLANE('',#1204);
#1054=PLANE('',#1205);
#1055=PLANE('',#1206);
#1056=PLANE('',#1207);
#1057=PLANE('',#1208);
#1058=PLANE('',#1209);
#1059=PLANE('',#1210);
#1060=ADVANCED_FACE('',(#963,#964,#965),#1024,.T.);
#1061=ADVANCED_FACE('',(#966,#967,#968),#1025,.F.);
#1062=ADVANCED_FACE('',(#969),#18,.F.);
#1063=ADVANCED_FACE('',(#970),#1026,.T.);
#1064=ADVANCED_FACE('',(#971),#19,.F.);
#1065=ADVANCED_FACE('',(#972),#20,.T.);
#1066=ADVANCED_FACE('',(#973,#974,#975),#1027,.T.);
#1067=ADVANCED_FACE('',(#976),#1028,.F.);
#1068=ADVANCED_FACE('',(#977,#978,#979),#1029,.F.);
#1069=ADVANCED_FACE('',(#980),#1030,.T.);
#1070=ADVANCED_FACE('',(#981),#1031,.F.);
#1071=ADVANCED_FACE('',(#982),#1032,.F.);
#1072=ADVANCED_FACE('',(#983),#1033,.F.);
#1073=ADVANCED_FACE('',(#984),#1034,.F.);
#1074=ADVANCED_FACE('',(#985),#1035,.T.);
#1075=ADVANCED_FACE('',(#986),#21,.F.);
#1076=ADVANCED_FACE('',(#987),#1036,.T.);
#1077=ADVANCED_FACE('',(#988),#1037,.F.);
#1078=ADVANCED_FACE('',(#989),#22,.F.);
#1079=ADVANCED_FACE('',(#990),#1038,.T.);
#1080=ADVANCED_FACE('',(#991),#12,.F.);
#1081=ADVANCED_FACE('',(#992),#1039,.F.);
#1082=ADVANCED_FACE('',(#993),#23,.F.);
#1083=ADVANCED_FACE('',(#994),#1040,.T.);
#1084=ADVANCED_FACE('',(#995),#1041,.F.);
#1085=ADVANCED_FACE('',(#996),#24,.F.);
#1086=ADVANCED_FACE('',(#997),#1042,.T.);
#1087=ADVANCED_FACE('',(#998),#13,.T.);
#1088=ADVANCED_FACE('',(#999),#1043,.F.);
#1089=ADVANCED_FACE('',(#1000),#1044,.F.);
#1090=ADVANCED_FACE('',(#1001),#1045,.F.);
#1091=ADVANCED_FACE('',(#1002),#1046,.F.);
#1092=ADVANCED_FACE('',(#1003),#1047,.T.);
#1093=ADVANCED_FACE('',(#1004),#25,.F.);
#1094=ADVANCED_FACE('',(#1005),#1048,.T.);
#1095=ADVANCED_FACE('',(#1006),#26,.F.);
#1096=ADVANCED_FACE('',(#1007),#1049,.T.);
#1097=ADVANCED_FACE('',(#1008),#27,.F.);
#1098=ADVANCED_FACE('',(#1009),#1050,.T.);
#1099=ADVANCED_FACE('',(#1010),#28,.F.);
#1100=ADVANCED_FACE('',(#1011),#1051,.T.);
#1101=ADVANCED_FACE('',(#1012),#29,.T.);
#1102=ADVANCED_FACE('',(#1013),#30,.T.);
#1103=ADVANCED_FACE('',(#1014),#31,.T.);
#1104=ADVANCED_FACE('',(#1015),#32,.T.);
#1105=ADVANCED_FACE('',(#1016),#1052,.F.);
#1106=ADVANCED_FACE('',(#1017),#1053,.T.);
#1107=ADVANCED_FACE('',(#1018),#1054,.T.);
#1108=ADVANCED_FACE('',(#1019),#1055,.F.);
#1109=ADVANCED_FACE('',(#1020),#1056,.F.);
#1110=ADVANCED_FACE('',(#1021),#1057,.T.);
#1111=ADVANCED_FACE('',(#1022),#1058,.T.);
#1112=ADVANCED_FACE('',(#1023),#1059,.F.);
#1113=CLOSED_SHELL('',(#1060,#1061,#1062,#1063,#1064,#1065,#1066,#1067,
#1068,#1069,#1070,#1071,#1072,#1073,#1074,#1075,#1076,#1077,#1078,#1079,
#1080,#1081,#1082,#1083,#1084,#1085,#1086,#1087,#1088,#1089,#1090,#1091,
#1092,#1093,#1094,#1095,#1096,#1097,#1098,#1099,#1100,#1101,#1102,#1103,
#1104,#1105,#1106,#1107,#1108,#1109,#1110,#1111,#1112));
#1114=STYLED_ITEM('',(#1115),#1122);
#1115=PRESENTATION_STYLE_ASSIGNMENT((#1116));
#1116=SURFACE_STYLE_USAGE(.BOTH.,#1117);
#1117=SURFACE_SIDE_STYLE('',(#1118));
#1118=SURFACE_STYLE_FILL_AREA(#1119);
#1119=FILL_AREA_STYLE('',(#1120));
#1120=FILL_AREA_STYLE_COLOUR('',#1121);
#1121=COLOUR_RGB('',0.615686274509804,0.811764705882353,0.929411764705882);
#1122=MANIFOLD_SOLID_BREP('Folded',#1113);
#1123=SHAPE_DEFINITION_REPRESENTATION(#1883,#1124);
#1124=SHAPE_REPRESENTATION('Folded',(#1125),#1878);
#1125=AXIS2_PLACEMENT_3D('',#1506,#1211,#1212);
#1126=AXIS2_PLACEMENT_3D('',#1507,#1213,#1214);
#1127=AXIS2_PLACEMENT_3D('',#1511,#1216,#1217);
#1128=AXIS2_PLACEMENT_3D('',#1515,#1219,#1220);
#1129=AXIS2_PLACEMENT_3D('',#1523,#1224,#1225);
#1130=AXIS2_PLACEMENT_3D('',#1527,#1227,#1228);
#1131=AXIS2_PLACEMENT_3D('',#1531,#1230,#1231);
#1132=AXIS2_PLACEMENT_3D('',#1535,#1233,#1234);
#1133=AXIS2_PLACEMENT_3D('',#1536,#1235,#1236);
#1134=AXIS2_PLACEMENT_3D('',#1537,#1237,#1238);
#1135=AXIS2_PLACEMENT_3D('',#1542,#1240,#1241);
#1136=AXIS2_PLACEMENT_3D('',#1548,#1244,#1245);
#1137=AXIS2_PLACEMENT_3D('',#1556,#1249,#1250);
#1138=AXIS2_PLACEMENT_3D('',#1557,#1251,#1252);
#1139=AXIS2_PLACEMENT_3D('',#1562,#1254,#1255);
#1140=AXIS2_PLACEMENT_3D('',#1565,#1257,#1258);
#1141=AXIS2_PLACEMENT_3D('',#1569,#1260,#1261);
#1142=AXIS2_PLACEMENT_3D('',#1573,#1263,#1264);
#1143=AXIS2_PLACEMENT_3D('',#1577,#1266,#1267);
#1144=AXIS2_PLACEMENT_3D('',#1581,#1269,#1270);
#1145=AXIS2_PLACEMENT_3D('',#1582,#1271,#1272);
#1146=AXIS2_PLACEMENT_3D('',#1586,#1274,#1275);
#1147=AXIS2_PLACEMENT_3D('',#1587,#1276,#1277);
#1148=AXIS2_PLACEMENT_3D('',#1590,#1280,#1281);
#1149=AXIS2_PLACEMENT_3D('',#1591,#1282,#1283);
#1150=AXIS2_PLACEMENT_3D('',#1595,#1285,#1286);
#1151=AXIS2_PLACEMENT_3D('',#1596,#1287,#1288);
#1152=AXIS2_PLACEMENT_3D('',#1597,#1289,#1290);
#1153=AXIS2_PLACEMENT_3D('',#1609,#1296,#1297);
#1154=AXIS2_PLACEMENT_3D('',#1610,#1298,#1299);
#1155=AXIS2_PLACEMENT_3D('',#1614,#1301,#1302);
#1156=AXIS2_PLACEMENT_3D('',#1645,#1319,#1320);
#1157=AXIS2_PLACEMENT_3D('',#1646,#1321,#1322);
#1158=AXIS2_PLACEMENT_3D('',#1653,#1325,#1326);
#1159=AXIS2_PLACEMENT_3D('',#1666,#1329,#1330);
#1160=AXIS2_PLACEMENT_3D('',#1681,#1333,#1334);
#1161=AXIS2_PLACEMENT_3D('',#1686,#1337,#1338);
#1162=AXIS2_PLACEMENT_3D('',#1692,#1342,#1343);
#1163=AXIS2_PLACEMENT_3D('',#1696,#1345,#1346);
#1164=AXIS2_PLACEMENT_3D('',#1710,#1349,#1350);
#1165=AXIS2_PLACEMENT_3D('',#1716,#1353,#1354);
#1166=AXIS2_PLACEMENT_3D('',#1722,#1357,#1358);
#1167=AXIS2_PLACEMENT_3D('',#1735,#1361,#1362);
#1168=AXIS2_PLACEMENT_3D('',#1736,#1363,#1364);
#1169=AXIS2_PLACEMENT_3D('',#1765,#1380,#1381);
#1170=AXIS2_PLACEMENT_3D('',#1768,#1384,#1385);
#1171=AXIS2_PLACEMENT_3D('',#1771,#1388,#1389);
#1172=AXIS2_PLACEMENT_3D('',#1774,#1392,#1393);
#1173=AXIS2_PLACEMENT_3D('',#1777,#1396,#1397);
#1174=AXIS2_PLACEMENT_3D('',#1780,#1400,#1401);
#1175=AXIS2_PLACEMENT_3D('',#1783,#1404,#1405);
#1176=AXIS2_PLACEMENT_3D('',#1786,#1408,#1409);
#1177=AXIS2_PLACEMENT_3D('',#1788,#1411,#1412);
#1178=AXIS2_PLACEMENT_3D('',#1790,#1414,#1415);
#1179=AXIS2_PLACEMENT_3D('',#1792,#1417,#1418);
#1180=AXIS2_PLACEMENT_3D('',#1809,#1421,#1422);
#1181=AXIS2_PLACEMENT_3D('',#1810,#1423,#1424);
#1182=AXIS2_PLACEMENT_3D('',#1813,#1427,#1428);
#1183=AXIS2_PLACEMENT_3D('',#1815,#1430,#1431);
#1184=AXIS2_PLACEMENT_3D('',#1817,#1433,#1434);
#1185=AXIS2_PLACEMENT_3D('',#1819,#1436,#1437);
#1186=AXIS2_PLACEMENT_3D('',#1836,#1440,#1441);
#1187=AXIS2_PLACEMENT_3D('',#1837,#1442,#1443);
#1188=AXIS2_PLACEMENT_3D('',#1840,#1446,#1447);
#1189=AXIS2_PLACEMENT_3D('',#1843,#1450,#1451);
#1190=AXIS2_PLACEMENT_3D('',#1846,#1454,#1455);
#1191=AXIS2_PLACEMENT_3D('',#1849,#1458,#1459);
#1192=AXIS2_PLACEMENT_3D('',#1852,#1462,#1463);
#1193=AXIS2_PLACEMENT_3D('',#1854,#1465,#1466);
#1194=AXIS2_PLACEMENT_3D('',#1856,#1468,#1469);
#1195=AXIS2_PLACEMENT_3D('',#1857,#1470,#1471);
#1196=AXIS2_PLACEMENT_3D('',#1860,#1474,#1475);
#1197=AXIS2_PLACEMENT_3D('',#1862,#1477,#1478);
#1198=AXIS2_PLACEMENT_3D('',#1864,#1480,#1481);
#1199=AXIS2_PLACEMENT_3D('',#1865,#1482,#1483);
#1200=AXIS2_PLACEMENT_3D('',#1866,#1484,#1485);
#1201=AXIS2_PLACEMENT_3D('',#1867,#1486,#1487);
#1202=AXIS2_PLACEMENT_3D('',#1868,#1488,#1489);
#1203=AXIS2_PLACEMENT_3D('',#1869,#1490,#1491);
#1204=AXIS2_PLACEMENT_3D('',#1870,#1492,#1493);
#1205=AXIS2_PLACEMENT_3D('',#1871,#1494,#1495);
#1206=AXIS2_PLACEMENT_3D('',#1872,#1496,#1497);
#1207=AXIS2_PLACEMENT_3D('',#1873,#1498,#1499);
#1208=AXIS2_PLACEMENT_3D('',#1874,#1500,#1501);
#1209=AXIS2_PLACEMENT_3D('',#1875,#1502,#1503);
#1210=AXIS2_PLACEMENT_3D('',#1876,#1504,#1505);
#1211=DIRECTION('',(0.,0.,1.));
#1212=DIRECTION('',(1.,0.,0.));
#1213=DIRECTION('',(0.988315848640725,0.,0.152419760285746));
#1214=DIRECTION('',(0.152419760285746,0.,-0.988315848640725));
#1215=DIRECTION('',(0.152419760285746,0.,-0.988315848640725));
#1216=DIRECTION('',(0.988315848640725,0.,0.152419760285746));
#1217=DIRECTION('',(-0.152419760285746,0.,0.988315848640725));
#1218=DIRECTION('',(0.,1.,0.));
#1219=DIRECTION('',(0.988315848640725,0.,0.152419760285746));
#1220=DIRECTION('',(0.152419760285746,0.,-0.988315848640725));
#1221=DIRECTION('',(0.152419760285746,0.,-0.988315848640725));
#1222=DIRECTION('',(0.,1.,0.));
#1223=DIRECTION('',(3.11834965502995E-17,1.,-2.021991361154E-16));
#1224=DIRECTION('',(0.988315848640725,0.,0.152419760285746));
#1225=DIRECTION('',(0.152419760285746,0.,-0.988315848640725));
#1226=DIRECTION('',(-3.11834965502995E-17,-1.,2.021991361154E-16));
#1227=DIRECTION('',(0.988315848640725,0.,0.152419760285746));
#1228=DIRECTION('',(0.152419760285746,0.,-0.988315848640725));
#1229=DIRECTION('',(3.11834965502995E-17,-1.,-2.021991361154E-16));
#1230=DIRECTION('',(0.988315848640725,0.,0.152419760285746));
#1231=DIRECTION('',(0.152419760285746,0.,-0.988315848640725));
#1232=DIRECTION('',(-3.11834965502995E-17,1.,2.021991361154E-16));
#1233=DIRECTION('',(0.988315848640725,0.,0.152419760285746));
#1234=DIRECTION('',(0.152419760285746,0.,-0.988315848640725));
#1235=DIRECTION('',(0.988315848640725,0.,0.152419760285746));
#1236=DIRECTION('',(0.152419760285746,0.,-0.988315848640725));
#1237=DIRECTION('',(0.988315848640725,0.,0.152419760285746));
#1238=DIRECTION('',(0.152419760285746,0.,-0.988315848640725));
#1239=DIRECTION('',(3.11834965502994E-17,1.,-2.021991361154E-16));
#1240=DIRECTION('',(0.988315848640725,0.,0.152419760285746));
#1241=DIRECTION('',(0.152419760285746,0.,-0.988315848640725));
#1242=DIRECTION('',(-3.11834965502994E-17,-1.,2.021991361154E-16));
#1243=DIRECTION('',(0.,1.,0.));
#1244=DIRECTION('',(0.988315848640725,0.,0.152419760285746));
#1245=DIRECTION('',(-0.152419760285746,0.,0.988315848640725));
#1246=DIRECTION('',(0.152419760285746,0.,-0.988315848640725));
#1247=DIRECTION('',(0.,1.,0.));
#1248=DIRECTION('',(0.152419760285746,0.,-0.988315848640725));
#1249=DIRECTION('',(0.988315848640725,0.,0.152419760285746));
#1250=DIRECTION('',(0.152419760285746,0.,-0.988315848640725));
#1251=DIRECTION('',(0.988315848640725,0.,0.152419760285746));
#1252=DIRECTION('',(0.152419760285746,0.,-0.988315848640725));
#1253=DIRECTION('',(3.11834965502994E-17,-1.,-2.021991361154E-16));
#1254=DIRECTION('',(0.988315848640725,0.,0.152419760285746));
#1255=DIRECTION('',(0.152419760285746,0.,-0.988315848640725));
#1256=DIRECTION('',(-3.11834965502994E-17,1.,2.021991361154E-16));
#1257=DIRECTION('',(0.,1.,0.));
#1258=DIRECTION('',(0.,0.,1.));
#1259=DIRECTION('',(0.,1.,0.));
#1260=DIRECTION('',(-0.107777046084879,-0.707106781186548,0.698844838527994));
#1261=DIRECTION('',(-0.107777046084879,0.707106781186547,0.698844838527994));
#1262=DIRECTION('',(0.,1.,0.));
#1263=DIRECTION('',(-0.107777046084879,0.707106781186548,0.698844838527994));
#1264=DIRECTION('',(0.107777046084879,0.707106781186547,-0.698844838527994));
#1265=DIRECTION('',(0.,1.,0.));
#1266=DIRECTION('',(0.107777046084879,0.707106781186547,-0.698844838527994));
#1267=DIRECTION('',(-0.107777046084879,0.707106781186548,0.698844838527994));
#1268=DIRECTION('',(0.,1.,0.));
#1269=DIRECTION('',(0.,-1.,0.));
#1270=DIRECTION('',(0.,0.,-1.));
#1271=DIRECTION('',(0.,-1.,0.));
#1272=DIRECTION('',(0.,0.,-1.));
#1273=DIRECTION('',(0.,1.,0.));
#1274=DIRECTION('',(0.107777046084879,-0.707106781186547,-0.698844838527994));
#1275=DIRECTION('',(0.107777046084879,0.707106781186548,-0.698844838527994));
#1276=DIRECTION('',(-0.0923955136474777,0.,0.995722385536159));
#1277=DIRECTION('',(0.995722385536159,0.,0.0923955136474777));
#1278=DIRECTION('',(0.995722385536159,0.,0.0923955136474777));
#1279=DIRECTION('',(0.995722385536159,0.,0.0923955136474777));
#1280=DIRECTION('',(0.,1.,0.));
#1281=DIRECTION('',(0.,0.,1.));
#1282=DIRECTION('',(0.,-1.,0.));
#1283=DIRECTION('',(0.,0.,-1.));
#1284=DIRECTION('',(0.,1.,0.));
#1285=DIRECTION('',(0.,-1.,0.));
#1286=DIRECTION('',(0.,0.,-1.));
#1287=DIRECTION('',(0.,1.,0.));
#1288=DIRECTION('',(0.,0.,1.));
#1289=DIRECTION('',(0.,-1.,0.));
#1290=DIRECTION('',(0.,0.,-1.));
#1291=DIRECTION('',(0.,1.,0.));
#1292=DIRECTION('',(0.,1.,0.));
#1293=DIRECTION('',(0.,1.,0.));
#1294=DIRECTION('',(0.,1.,0.));
#1295=DIRECTION('',(0.,1.,0.));
#1296=DIRECTION('',(0.,-1.,0.));
#1297=DIRECTION('',(0.,0.,-1.));
#1298=DIRECTION('',(0.994088939544786,0.,-0.108568781308088));
#1299=DIRECTION('',(-0.108568781308088,0.,-0.994088939544786));
#1300=DIRECTION('',(0.,1.,0.));
#1301=DIRECTION('',(0.994088939544786,0.,-0.108568781308088));
#1302=DIRECTION('',(-0.108568781308088,0.,-0.994088939544786));
#1303=DIRECTION('',(-0.108568781308088,0.,-0.994088939544786));
#1304=DIRECTION('',(0.0780885950113975,-0.694746590606866,0.715003039272758));
#1305=DIRECTION('',(0.108568781308088,0.,0.994088939544786));
#1306=DIRECTION('',(0.0780885950113975,0.694746590606866,0.715003039272759));
#1307=DIRECTION('',(1.29400890783704E-17,-1.,1.1848341000558E-16));
#1308=DIRECTION('',(0.0780885950113976,-0.694746590606865,0.715003039272759));
#1309=DIRECTION('',(0.108568781308088,5.53111521564272E-16,0.994088939544786));
#1310=DIRECTION('',(0.0780885950113976,0.694746590606865,0.715003039272759));
#1311=DIRECTION('',(-0.0780885950113976,0.694746590606865,-0.715003039272759));
#1312=DIRECTION('',(-0.108568781308088,5.53111521564272E-16,-0.994088939544786));
#1313=DIRECTION('',(-0.0780885950113975,-0.694746590606866,-0.715003039272758));
#1314=DIRECTION('',(-1.29400890783704E-17,-1.,-1.1848341000558E-16));
#1315=DIRECTION('',(-0.0780885950113975,0.694746590606866,-0.715003039272759));
#1316=DIRECTION('',(-0.108568781308088,0.,-0.994088939544786));
#1317=DIRECTION('',(-0.0780885950113975,-0.694746590606866,-0.715003039272758));
#1318=DIRECTION('',(-0.108568781308088,0.,-0.994088939544786));
#1319=DIRECTION('',(0.994088939544786,0.,-0.108568781308088));
#1320=DIRECTION('',(-0.108568781308088,0.,-0.994088939544786));
#1321=DIRECTION('',(0.994088939544786,0.,-0.108568781308088));
#1322=DIRECTION('',(0.108568781308088,0.,0.994088939544786));
#1323=DIRECTION('',(0.0348061531328974,-0.947217786440588,0.31869577461065));
#1324=DIRECTION('',(-0.0348061531328948,-0.947217786440596,-0.318695774610626));
#1325=DIRECTION('',(0.994088939544786,0.,-0.108568781308088));
#1326=DIRECTION('',(0.108568781308088,0.,0.994088939544786));
#1327=DIRECTION('',(0.,1.,0.));
#1328=DIRECTION('',(0.,1.,0.));
#1329=DIRECTION('',(0.994088939544786,0.,-0.108568781308088));
#1330=DIRECTION('',(0.108568781308088,0.,0.994088939544786));
#1331=DIRECTION('',(0.,1.,0.));
#1332=DIRECTION('',(0.,1.,0.));
#1333=DIRECTION('',(0.994088939544786,0.,-0.108568781308088));
#1334=DIRECTION('',(0.108568781308088,0.,0.994088939544786));
#1335=DIRECTION('',(0.0348061531328948,-0.947217786440596,0.318695774610626));
#1336=DIRECTION('',(-0.0348061531328974,-0.947217786440588,-0.31869577461065));
#1337=DIRECTION('',(-0.108568781308088,0.,-0.994088939544786));
#1338=DIRECTION('',(-0.994088939544786,0.,0.108568781308088));
#1339=DIRECTION('',(0.,1.,0.));
#1340=DIRECTION('',(-0.994088939544786,0.,0.108568781308088));
#1341=DIRECTION('',(-0.994088939544786,0.,0.108568781308088));
#1342=DIRECTION('',(0.994088939544786,0.,-0.108568781308088));
#1343=DIRECTION('',(-0.108568781308088,0.,-0.994088939544786));
#1344=DIRECTION('',(0.0348061531328974,-0.947217786440588,0.31869577461065));
#1345=DIRECTION('',(0.994088939544786,0.,-0.108568781308088));
#1346=DIRECTION('',(0.108568781308088,0.,0.994088939544786));
#1347=DIRECTION('',(0.,1.,0.));
#1348=DIRECTION('',(0.,1.,0.));
#1349=DIRECTION('',(0.994088939544786,0.,-0.108568781308088));
#1350=DIRECTION('',(0.108568781308088,0.,0.994088939544786));
#1351=DIRECTION('',(-0.0348061531328948,-0.947217786440596,-0.318695774610626));
#1352=DIRECTION('',(0.,1.,0.));
#1353=DIRECTION('',(0.994088939544786,0.,-0.108568781308088));
#1354=DIRECTION('',(0.108568781308088,0.,0.994088939544786));
#1355=DIRECTION('',(-0.0348061531328974,-0.947217786440588,-0.31869577461065));
#1356=DIRECTION('',(0.0348061531328948,-0.947217786440596,0.318695774610626));
#1357=DIRECTION('',(0.994088939544786,0.,-0.108568781308088));
#1358=DIRECTION('',(0.108568781308088,0.,0.994088939544786));
#1359=DIRECTION('',(0.,1.,0.));
#1360=DIRECTION('',(-0.108568781308088,0.,-0.994088939544786));
#1361=DIRECTION('',(0.994088939544786,0.,-0.108568781308088));
#1362=DIRECTION('',(-0.108568781308088,0.,-0.994088939544786));
#1363=DIRECTION('',(0.994088939544786,0.,-0.108568781308088));
#1364=DIRECTION('',(-0.108568781308088,0.,-0.994088939544786));
#1365=DIRECTION('',(-0.108568781308088,0.,-0.994088939544786));
#1366=DIRECTION('',(0.0780885950113975,0.694746590606866,0.715003039272758));
#1367=DIRECTION('',(-0.108568781308088,0.,-0.994088939544786));
#1368=DIRECTION('',(0.0780885950113975,-0.694746590606866,0.715003039272759));
#1369=DIRECTION('',(-1.29400890783704E-17,-1.,-1.1848341000558E-16));
#1370=DIRECTION('',(0.0780885950113975,0.694746590606866,0.715003039272758));
#1371=DIRECTION('',(-0.108568781308088,5.53111521564272E-16,-0.994088939544786));
#1372=DIRECTION('',(0.0780885950113975,-0.694746590606865,0.715003039272759));
#1373=DIRECTION('',(-0.0780885950113975,-0.694746590606865,-0.715003039272759));
#1374=DIRECTION('',(0.108568781308088,5.53111521564272E-16,0.994088939544786));
#1375=DIRECTION('',(-0.0780885950113976,0.694746590606865,-0.715003039272759));
#1376=DIRECTION('',(1.29400890783704E-17,-1.,1.1848341000558E-16));
#1377=DIRECTION('',(-0.0780885950113975,-0.694746590606866,-0.715003039272759));
#1378=DIRECTION('',(0.108568781308088,0.,0.994088939544786));
#1379=DIRECTION('',(-0.0780885950113975,0.694746590606866,-0.715003039272758));
#1380=DIRECTION('',(0.,-1.,0.));
#1381=DIRECTION('',(1.,0.,0.));
#1382=DIRECTION('',(-0.994088939544786,0.,0.108568781308088));
#1383=DIRECTION('',(0.995722385536159,0.,0.0923955136474777));
#1384=DIRECTION('',(0.,-1.,0.));
#1385=DIRECTION('',(1.,0.,0.));
#1386=DIRECTION('',(-0.994088939544786,0.,0.108568781308088));
#1387=DIRECTION('',(0.995722385536159,0.,0.0923955136474777));
#1388=DIRECTION('',(-0.152419760285746,-1.1512670663411E-16,0.988315848640725));
#1389=DIRECTION('',(0.988315848640725,0.,0.152419760285746));
#1390=DIRECTION('',(-0.988315848640725,0.,-0.152419760285746));
#1391=DIRECTION('',(0.988315848640725,0.,0.152419760285746));
#1392=DIRECTION('',(8.72790883457349E-17,-1.,-5.65932567439358E-16));
#1393=DIRECTION('',(0.,5.65932567439358E-16,-1.));
#1394=DIRECTION('',(-0.988315848640725,0.,-0.152419760285746));
#1395=DIRECTION('',(0.988315848640725,0.,0.152419760285746));
#1396=DIRECTION('',(0.152419760285746,0.,-0.988315848640725));
#1397=DIRECTION('',(-0.988315848640725,0.,-0.152419760285746));
#1398=DIRECTION('',(-0.988315848640725,0.,-0.152419760285746));
#1399=DIRECTION('',(0.988315848640725,0.,0.152419760285746));
#1400=DIRECTION('',(0.,-1.,0.));
#1401=DIRECTION('',(0.,0.,-1.));
#1402=DIRECTION('',(0.988315848640725,0.,0.152419760285746));
#1403=DIRECTION('',(-0.988315848640725,0.,-0.152419760285746));
#1404=DIRECTION('',(0.988315848640725,0.,0.152419760285746));
#1405=DIRECTION('',(-0.152419753998919,-0.000287216988695425,0.988315807875858));
#1406=DIRECTION('',(0.988315848640725,0.,0.152419760285746));
#1407=DIRECTION('',(0.988315848640725,0.,0.152419760285746));
#1408=DIRECTION('',(-0.144874288310448,-0.310738481139043,0.939389715148054));
#1409=DIRECTION('',(0.,-0.949405880942991,-0.314051704709374));
#1410=DIRECTION('',(0.988315848640725,0.,0.152419760285746));
#1411=DIRECTION('',(-0.144874288310449,0.310738481139019,0.939389715148062));
#1412=DIRECTION('',(0.,-0.949405880942999,0.314051704709351));
#1413=DIRECTION('',(0.988315848640725,0.,0.152419760285746));
#1414=DIRECTION('',(0.988315848640725,0.,0.152419760285746));
#1415=DIRECTION('',(-0.152419755508476,-0.000250371134594836,0.988315817664086));
#1416=DIRECTION('',(0.988315848640725,0.,0.152419760285746));
#1417=DIRECTION('',(0.152419760285746,0.,-0.988315848640725));
#1418=DIRECTION('',(-0.988315848640725,0.,-0.152419760285746));
#1419=DIRECTION('',(0.988315848640725,0.,0.152419760285746));
#1420=DIRECTION('',(0.988315848640725,0.,0.152419760285746));
#1421=DIRECTION('',(0.152419760285746,0.,-0.988315848640725));
#1422=DIRECTION('',(-0.988315848640725,0.,-0.152419760285746));
#1423=DIRECTION('',(0.988315848640725,0.,0.152419760285746));
#1424=DIRECTION('',(-0.152419753998919,0.000287216983925721,0.98831580787586));
#1425=DIRECTION('',(0.988315848640725,0.,0.152419760285746));
#1426=DIRECTION('',(0.988315848640725,0.,0.152419760285746));
#1427=DIRECTION('',(-0.144874288310448,0.310738481139043,0.939389715148054));
#1428=DIRECTION('',(0.,0.949405880942991,-0.314051704709374));
#1429=DIRECTION('',(0.988315848640725,0.,0.152419760285746));
#1430=DIRECTION('',(-0.144874288310449,-0.310738481139019,0.939389715148062));
#1431=DIRECTION('',(0.,0.949405880942999,0.314051704709351));
#1432=DIRECTION('',(0.988315848640725,0.,0.152419760285746));
#1433=DIRECTION('',(0.988315848640725,0.,0.152419760285746));
#1434=DIRECTION('',(-0.152419755508476,0.000250371134594836,0.988315817664086));
#1435=DIRECTION('',(0.988315848640725,0.,0.152419760285746));
#1436=DIRECTION('',(0.152419760285746,0.,-0.988315848640725));
#1437=DIRECTION('',(-0.988315848640725,0.,-0.152419760285746));
#1438=DIRECTION('',(0.988315848640725,0.,0.152419760285746));
#1439=DIRECTION('',(0.988315848640725,0.,0.152419760285746));
#1440=DIRECTION('',(0.152419760285746,0.,-0.988315848640725));
#1441=DIRECTION('',(-0.988315848640725,0.,-0.152419760285746));
#1442=DIRECTION('',(-0.152419760285746,1.1512670663411E-16,0.988315848640725));
#1443=DIRECTION('',(0.988315848640725,0.,0.152419760285746));
#1444=DIRECTION('',(0.988315848640725,0.,0.152419760285746));
#1445=DIRECTION('',(-0.988315848640725,0.,-0.152419760285746));
#1446=DIRECTION('',(8.72790883457349E-17,1.,-5.65932567439358E-16));
#1447=DIRECTION('',(0.,-5.65932567439358E-16,-1.));
#1448=DIRECTION('',(0.988315848640725,0.,0.152419760285746));
#1449=DIRECTION('',(-0.988315848640725,0.,-0.152419760285746));
#1450=DIRECTION('',(0.152419760285746,0.,-0.988315848640725));
#1451=DIRECTION('',(-0.988315848640725,0.,-0.152419760285746));
#1452=DIRECTION('',(0.988315848640725,0.,0.152419760285746));
#1453=DIRECTION('',(-0.988315848640725,0.,-0.152419760285746));
#1454=DIRECTION('',(0.,1.,0.));
#1455=DIRECTION('',(0.,0.,-1.));
#1456=DIRECTION('',(-0.988315848640725,0.,-0.152419760285746));
#1457=DIRECTION('',(0.988315848640725,0.,0.152419760285746));
#1458=DIRECTION('',(0.988315848640725,0.,0.152419760285746));
#1459=DIRECTION('',(0.152419760285746,0.,-0.988315848640725));
#1460=DIRECTION('',(0.988315848640725,0.,0.152419760285746));
#1461=DIRECTION('',(0.988315848640725,0.,0.152419760285746));
#1462=DIRECTION('',(-0.152419760285746,2.04589591873381E-16,0.988315848640725));
#1463=DIRECTION('',(0.988315848640725,0.,0.152419760285746));
#1464=DIRECTION('',(0.988315848640725,0.,0.152419760285746));
#1465=DIRECTION('',(0.988315848640725,0.,0.152419760285746));
#1466=DIRECTION('',(0.152419760285746,0.,-0.988315848640725));
#1467=DIRECTION('',(0.988315848640725,0.,0.152419760285746));
#1468=DIRECTION('',(0.152419760285746,-2.04589591873381E-16,-0.988315848640725));
#1469=DIRECTION('',(-0.988315848640725,0.,-0.152419760285746));
#1470=DIRECTION('',(0.988315848640725,0.,0.152419760285746));
#1471=DIRECTION('',(0.152419760285746,0.,-0.988315848640725));
#1472=DIRECTION('',(0.988315848640725,0.,0.152419760285746));
#1473=DIRECTION('',(0.988315848640725,0.,0.152419760285746));
#1474=DIRECTION('',(-0.152419760285746,-2.04589591873381E-16,0.988315848640725));
#1475=DIRECTION('',(0.988315848640725,0.,0.152419760285746));
#1476=DIRECTION('',(0.988315848640725,0.,0.152419760285746));
#1477=DIRECTION('',(0.988315848640725,0.,0.152419760285746));
#1478=DIRECTION('',(0.152419760285746,0.,-0.988315848640725));
#1479=DIRECTION('',(0.988315848640725,0.,0.152419760285746));
#1480=DIRECTION('',(0.152419760285746,2.04589591873381E-16,-0.988315848640725));
#1481=DIRECTION('',(-0.988315848640725,0.,-0.152419760285746));
#1482=DIRECTION('',(0.994088939544786,0.,-0.108568781308088));
#1483=DIRECTION('',(-0.108568781308088,0.,-0.994088939544786));
#1484=DIRECTION('',(-0.994088939544786,0.,0.108568781308088));
#1485=DIRECTION('',(0.108568781308088,0.,0.994088939544786));
#1486=DIRECTION('',(-0.995722385536159,0.,-0.0923955136474777));
#1487=DIRECTION('',(-0.0923955136474777,0.,0.995722385536159));
#1488=DIRECTION('',(0.995722385536159,0.,0.0923955136474777));
#1489=DIRECTION('',(0.0923955136474777,0.,-0.995722385536159));
#1490=DIRECTION('',(0.107777046084879,-0.707106781186547,-0.698844838527994));
#1491=DIRECTION('',(0.988315848640725,0.,0.152419760285746));
#1492=DIRECTION('',(-0.107777046084879,-0.707106781186548,0.698844838527994));
#1493=DIRECTION('',(-0.988315848640725,0.,-0.152419760285746));
#1494=DIRECTION('',(0.107777046084879,-0.707106781186548,-0.698844838527994));
#1495=DIRECTION('',(-0.988315848640725,0.,-0.152419760285746));
#1496=DIRECTION('',(-0.107777046084879,-0.707106781186548,0.698844838527994));
#1497=DIRECTION('',(0.988315848640725,0.,0.152419760285746));
#1498=DIRECTION('',(0.107777046084879,0.707106781186547,-0.698844838527994));
#1499=DIRECTION('',(0.988315848640725,0.,0.152419760285746));
#1500=DIRECTION('',(-0.107777046084879,0.707106781186548,0.698844838527994));
#1501=DIRECTION('',(-0.988315848640725,0.,-0.152419760285746));
#1502=DIRECTION('',(0.107777046084879,0.707106781186548,-0.698844838527994));
#1503=DIRECTION('',(-0.988315848640725,0.,-0.152419760285746));
#1504=DIRECTION('',(-0.107777046084879,0.707106781186548,0.698844838527994));
#1505=DIRECTION('',(0.988315848640725,0.,0.152419760285746));
#1506=CARTESIAN_POINT('',(0.,0.,0.));
#1507=CARTESIAN_POINT('',(-0.0168936860735969,-0.084025,-0.00547171283824446));
#1508=CARTESIAN_POINT('',(-0.0168936860735969,0.084025,-0.00547171283824446));
#1509=CARTESIAN_POINT('',(-0.0166360152935248,0.084025,-0.00714249433796244));
#1510=CARTESIAN_POINT('',(-0.0159297646215222,0.084025,-0.0117219447382565));
#1511=CARTESIAN_POINT('',(-0.0166360152935248,0.076025,-0.00714249433796244));
#1512=CARTESIAN_POINT('',(-0.0178576075256715,0.076025,0.000778519061767563));
#1513=CARTESIAN_POINT('',(-0.0178576075256715,-0.084025,0.000778519061767563));
#1514=CARTESIAN_POINT('',(-0.0178576075256715,-0.076025,0.000778519061767563));
#1515=CARTESIAN_POINT('',(-0.0166360152935248,-0.076025,-0.00714249433796244));
#1516=CARTESIAN_POINT('',(-0.0166360152935248,-0.084025,-0.00714249433796244));
#1517=CARTESIAN_POINT('',(-0.0168936860735969,-0.084025,-0.00547171283824446));
#1518=CARTESIAN_POINT('',(-0.0159297646215222,-0.084025,-0.0117219447382565));
#1519=CARTESIAN_POINT('',(-0.0159297646215222,-0.084025,-0.0117219447382565));
#1520=CARTESIAN_POINT('',(-0.0174844684487747,-0.084025,-0.0016409786644654));
#1521=CARTESIAN_POINT('',(-0.0174844684487747,0.024620029696437,-0.00164097866446542));
#1522=CARTESIAN_POINT('',(-0.0174844684487747,0.033,-0.00164097866446543));
#1523=CARTESIAN_POINT('',(-0.016965243204916,0.033,-0.005007724134724));
#1524=CARTESIAN_POINT('',(-0.0164460179610572,0.033,-0.00837446960498257));
#1525=CARTESIAN_POINT('',(-0.0164460179610572,-0.084025,-0.00837446960498255));
#1526=CARTESIAN_POINT('',(-0.0164460179610572,0.024620029696437,-0.00837446960498257));
#1527=CARTESIAN_POINT('',(-0.016965243204916,0.024620029696437,-0.005007724134724));
#1528=CARTESIAN_POINT('',(-0.0164460179610572,-0.084025,-0.00837446960498258));
#1529=CARTESIAN_POINT('',(-0.0164460179610572,-0.024620029696437,-0.00837446960498257));
#1530=CARTESIAN_POINT('',(-0.0164460179610572,-0.033,-0.00837446960498257));
#1531=CARTESIAN_POINT('',(-0.016965243204916,-0.033,-0.005007724134724));
#1532=CARTESIAN_POINT('',(-0.0174844684487747,-0.033,-0.00164097866446543));
#1533=CARTESIAN_POINT('',(-0.0174844684487747,-0.084025,-0.00164097866446544));
#1534=CARTESIAN_POINT('',(-0.0174844684487747,-0.024620029696437,-0.00164097866446542));
#1535=CARTESIAN_POINT('',(-0.016965243204916,-0.024620029696437,-0.005007724134724));
#1536=CARTESIAN_POINT('',(-0.0193372012416537,-0.084025,-0.00537353155940975));
#1537=CARTESIAN_POINT('',(-0.0193372012416537,0.033,-0.00537353155940979));
#1538=CARTESIAN_POINT('',(-0.0198564264855124,0.033,-0.00200678608915122));
#1539=CARTESIAN_POINT('',(-0.0188179759977949,0.033,-0.00874027702966836));
#1540=CARTESIAN_POINT('',(-0.0198564264855124,-0.084025,-0.0020067860891512));
#1541=CARTESIAN_POINT('',(-0.0198564264855124,0.024620029696437,-0.00200678608915122));
#1542=CARTESIAN_POINT('',(-0.0193372012416537,0.024620029696437,-0.00537353155940978));
#1543=CARTESIAN_POINT('',(-0.0188179759977949,0.024620029696437,-0.00874027702966836));
#1544=CARTESIAN_POINT('',(-0.0188179759977949,-0.084025,-0.00874027702966833));
#1545=CARTESIAN_POINT('',(-0.0202517198033682,-0.084025,0.000556363532434614));
#1546=CARTESIAN_POINT('',(-0.0202517198033682,-0.076025,0.000556363532434614));
#1547=CARTESIAN_POINT('',(-0.0202517198033682,0.076025,0.000556363532434614));
#1548=CARTESIAN_POINT('',(-0.0190301275712213,0.076025,-0.00736464986729545));
#1549=CARTESIAN_POINT('',(-0.0190301275712213,0.084025,-0.00736464986729545));
#1550=CARTESIAN_POINT('',(-0.0193372012416537,0.084025,-0.00537353155940975));
#1551=CARTESIAN_POINT('',(-0.0184226826799392,0.084025,-0.0113034266512542));
#1552=CARTESIAN_POINT('',(-0.0184226826799392,-0.084025,-0.0113034266512542));
#1553=CARTESIAN_POINT('',(-0.0184226826799392,-0.084025,-0.0113034266512542));
#1554=CARTESIAN_POINT('',(-0.0193372012416537,-0.084025,-0.00537353155940975));
#1555=CARTESIAN_POINT('',(-0.0190301275712213,-0.084025,-0.00736464986729545));
#1556=CARTESIAN_POINT('',(-0.0190301275712213,-0.076025,-0.00736464986729545));
#1557=CARTESIAN_POINT('',(-0.0193372012416537,-0.033,-0.00537353155940979));
#1558=CARTESIAN_POINT('',(-0.0188179759977949,-0.033,-0.00874027702966836));
#1559=CARTESIAN_POINT('',(-0.0198564264855124,-0.033,-0.00200678608915122));
#1560=CARTESIAN_POINT('',(-0.0188179759977949,-0.084025,-0.00874027702966837));
#1561=CARTESIAN_POINT('',(-0.0188179759977949,-0.024620029696437,-0.00874027702966836));
#1562=CARTESIAN_POINT('',(-0.0193372012416537,-0.024620029696437,-0.00537353155940978));
#1563=CARTESIAN_POINT('',(-0.0198564264855124,-0.024620029696437,-0.00200678608915122));
#1564=CARTESIAN_POINT('',(-0.0198564264855124,-0.084025,-0.00200678608915123));
#1565=CARTESIAN_POINT('',(-0.0129583422655722,-0.084025,-0.012135163476173));
#1566=CARTESIAN_POINT('',(-0.0102214311684598,-0.084025,-0.0133637472906958));
#1567=CARTESIAN_POINT('',(-0.0102214311684598,-0.0231132622408475,-0.0133637472906958));
#1568=CARTESIAN_POINT('',(-0.0102214311684598,-0.0339117159462188,-0.0133637472906958));
#1569=CARTESIAN_POINT('',(-0.0129583422655722,-0.0214818740522259,-0.012135163476173));
#1570=CARTESIAN_POINT('',(-0.0100123314470156,-0.0224909584114041,-0.0127018386915759));
#1571=CARTESIAN_POINT('',(-0.0100123314470156,-0.084025,-0.0127018386915759));
#1572=CARTESIAN_POINT('',(-0.0100123314470156,0.0224909584114041,-0.0127018386915759));
#1573=CARTESIAN_POINT('',(-0.0129583422655722,0.0214818740522259,-0.012135163476173));
#1574=CARTESIAN_POINT('',(-0.0102214311684598,0.0231132622408475,-0.0133637472906958));
#1575=CARTESIAN_POINT('',(-0.0102214311684598,-0.084025,-0.0133637472906958));
#1576=CARTESIAN_POINT('',(-0.0102214311684598,0.0339117159462188,-0.0133637472906958));
#1577=CARTESIAN_POINT('',(-0.0129583422655722,0.0355431041348405,-0.012135163476173));
#1578=CARTESIAN_POINT('',(-0.0100123314470156,0.0345340197756622,-0.0127018386915759));
#1579=CARTESIAN_POINT('',(-0.0100123314470156,-0.084025,-0.0127018386915759));
#1580=CARTESIAN_POINT('',(-0.0100123314470156,0.084025,-0.0127018386915759));
#1581=CARTESIAN_POINT('',(-0.0129583422655722,0.084025,-0.012135163476173));
#1582=CARTESIAN_POINT('',(-0.0129583422655722,-0.084025,-0.012135163476173));
#1583=CARTESIAN_POINT('',(-0.0100123314470156,-0.084025,-0.0127018386915759));
#1584=CARTESIAN_POINT('',(-0.0100123314470156,-0.084025,-0.0127018386915759));
#1585=CARTESIAN_POINT('',(-0.0100123314470156,-0.0345340197756622,-0.0127018386915759));
#1586=CARTESIAN_POINT('',(-0.0129583422655722,-0.0355431041348405,-0.012135163476173));
#1587=CARTESIAN_POINT('',(-0.0190546636645198,-0.084025,0.000667441297101058));
#1588=CARTESIAN_POINT('',(-0.0202517198033682,0.076025,0.000556363532434553));
#1589=CARTESIAN_POINT('',(-0.0190546636645198,-0.076025,0.000667441297101058));
#1590=CARTESIAN_POINT('',(-0.0238644126417767,-0.084025,-0.0121426595518131));
#1591=CARTESIAN_POINT('',(-0.0238644126417767,0.084025,-0.0121426595518131));
#1592=CARTESIAN_POINT('',(-0.0183583502995385,0.084025,-0.0121388750668086));
#1593=CARTESIAN_POINT('',(-0.0183583502995385,-0.084025,-0.0121388750668086));
#1594=CARTESIAN_POINT('',(-0.0183583502995385,-0.084025,-0.0121388750668086));
#1595=CARTESIAN_POINT('',(-0.0238644126417767,-0.084025,-0.0121426595518131));
#1596=CARTESIAN_POINT('',(-0.0129583422655722,-0.084025,-0.012135163476173));
#1597=CARTESIAN_POINT('',(-0.0129583422655722,0.084025,-0.012135163476173));
#1598=CARTESIAN_POINT('',(-0.00762214662255268,0.084025,-0.0129628811830172));
#1599=CARTESIAN_POINT('',(-0.00762214662255268,-0.084025,-0.0129628811830172));
#1600=CARTESIAN_POINT('',(-0.00762214662255268,0.0339117159462188,-0.0129628811830172));
#1601=CARTESIAN_POINT('',(-0.00762214662255268,-0.084025,-0.0129628811830172));
#1602=CARTESIAN_POINT('',(-0.00762214662255268,0.0231132622408475,-0.0129628811830172));
#1603=CARTESIAN_POINT('',(-0.00762214662255268,-0.084025,-0.0129628811830172));
#1604=CARTESIAN_POINT('',(-0.00762214662255268,-0.0231132622408475,-0.0129628811830172));
#1605=CARTESIAN_POINT('',(-0.00762214662255268,-0.084025,-0.0129628811830172));
#1606=CARTESIAN_POINT('',(-0.00762214662255268,-0.0339117159462188,-0.0129628811830172));
#1607=CARTESIAN_POINT('',(-0.00762214662255268,-0.084025,-0.0129628811830172));
#1608=CARTESIAN_POINT('',(-0.00762214662255268,-0.084025,-0.0129628811830172));
#1609=CARTESIAN_POINT('',(-0.0129583422655722,-0.084025,-0.012135163476173));
#1610=CARTESIAN_POINT('',(-0.00669489599870651,-0.084025,-0.00447269110953967));
#1611=CARTESIAN_POINT('',(-0.00576764537486034,-0.084025,0.00401749896393789));
#1612=CARTESIAN_POINT('',(-0.00576764537486034,-0.076025,0.00401749896393789));
#1613=CARTESIAN_POINT('',(-0.00576764537486034,0.076025,0.00401749896393789));
#1614=CARTESIAN_POINT('',(-0.00663619562532504,-0.076025,-0.0039352125524204));
#1615=CARTESIAN_POINT('',(-0.00663619562532504,-0.084025,-0.0039352125524204));
#1616=CARTESIAN_POINT('',(-0.00669489599870651,-0.084025,-0.00447269110953967));
#1617=CARTESIAN_POINT('',(-0.00767447882182016,-0.0334461214888628,-0.0134420507918776));
#1618=CARTESIAN_POINT('',(-0.00706015325643061,-0.0389117159462188,-0.00781709818141806));
#1619=CARTESIAN_POINT('',(-0.00669489599870651,-0.0389117159462188,-0.00447269110953967));
#1620=CARTESIAN_POINT('',(-0.00682212306188437,-0.0389117159462188,-0.00563762097972922));
#1621=CARTESIAN_POINT('',(-0.00687857965194997,-0.0394140047050272,-0.00615455477112336));
#1622=CARTESIAN_POINT('',(-0.00626012969576229,-0.0339117159462188,-0.000491837978130043));
#1623=CARTESIAN_POINT('',(-0.00626012969576229,-0.084025,-0.000491837978130037));
#1624=CARTESIAN_POINT('',(-0.00626012969576229,-0.0231132622408475,-0.000491837978130045));
#1625=CARTESIAN_POINT('',(-0.00631246189502976,-0.0226476677834913,-0.00097100758699043));
#1626=CARTESIAN_POINT('',(-0.00682212306188437,-0.0181132622408475,-0.00563762097972922));
#1627=CARTESIAN_POINT('',(-0.00669489599870652,-0.0181132622408475,-0.00447269110953971));
#1628=CARTESIAN_POINT('',(-0.00706015325643061,-0.0181132622408475,-0.00781709818141806));
#1629=CARTESIAN_POINT('',(-0.00709656111218709,-0.0184371793718245,-0.00815045963471971));
#1630=CARTESIAN_POINT('',(-0.00767447882182016,0.0235788566982035,-0.0134420507918776));
#1631=CARTESIAN_POINT('',(-0.00706015325643061,0.0181132622408475,-0.00781709818141806));
#1632=CARTESIAN_POINT('',(-0.00669489599870651,0.0181132622408475,-0.00447269110953961));
#1633=CARTESIAN_POINT('',(-0.00682212306188437,0.0181132622408475,-0.00563762097972923));
#1634=CARTESIAN_POINT('',(-0.00686677969923711,0.0177159565069659,-0.00604651079809838));
#1635=CARTESIAN_POINT('',(-0.00626012969576229,0.0231132622408475,-0.000491837978130044));
#1636=CARTESIAN_POINT('',(-0.00626012969576229,-0.084025,-0.000491837978130056));
#1637=CARTESIAN_POINT('',(-0.00626012969576229,0.0339117159462188,-0.000491837978130042));
#1638=CARTESIAN_POINT('',(-0.00631246189502976,0.034377310403575,-0.000971007586990428));
#1639=CARTESIAN_POINT('',(-0.00682212306188437,0.0389117159462188,-0.00563762097972922));
#1640=CARTESIAN_POINT('',(-0.00669489599870651,0.0389117159462188,-0.00447269110953967));
#1641=CARTESIAN_POINT('',(-0.00706015325643061,0.0389117159462188,-0.00781709818141806));
#1642=CARTESIAN_POINT('',(-0.00710836106489995,0.038482815790315,-0.00825850360774469));
#1643=CARTESIAN_POINT('',(-0.00669489599870651,0.084025,-0.00447269110953967));
#1644=CARTESIAN_POINT('',(-0.00663619562532504,0.084025,-0.0039352125524204));
#1645=CARTESIAN_POINT('',(-0.00663619562532504,0.076025,-0.0039352125524204));
#1646=CARTESIAN_POINT('',(-0.00666792159868261,0.0715240632439161,-0.00422570525972597));
#1647=CARTESIAN_POINT('',(-0.00706768446709255,0.07036285338412,-0.00788607373143639));
#1648=CARTESIAN_POINT('',(-0.00708845807501962,0.0715249999968366,-0.00807625121169796));
#1649=CARTESIAN_POINT('',(-0.00193935567685777,-0.0691999514340284,0.0390704893383826));
#1650=CARTESIAN_POINT('',(-0.0066948959987065,0.0602177512288092,-0.00447269110953953));
#1651=CARTESIAN_POINT('',(-0.0114504363205549,-0.0691999514340307,-0.0480158715574588));
#1652=CARTESIAN_POINT('',(-0.00632210753032042,0.0703628533841212,-0.00105930848764219));
#1653=CARTESIAN_POINT('',(-0.00672187039875601,0.0715240632439521,-0.00471967695958777));
#1654=CARTESIAN_POINT('',(-0.0063013339223934,0.0715249999968366,-0.000869131007381057));
#1655=CARTESIAN_POINT('',(-0.00630133416646469,-0.084025,-0.000869118703689833));
#1656=CARTESIAN_POINT('',(-0.00630133416646469,0.076525,-0.000869118703689821));
#1657=CARTESIAN_POINT('',(-0.00708845783094833,0.076525,-0.00807626351538952));
#1658=CARTESIAN_POINT('',(-0.00708845783094833,0.0774774997494267,-0.00807626351538952));
#1659=CARTESIAN_POINT('',(-0.00700393758727975,0.0793557215755544,-0.00730237033554312));
#1660=CARTESIAN_POINT('',(-0.00669502141228324,0.0805464157877676,-0.00447383943457379));
#1661=CARTESIAN_POINT('',(-0.00638609610773216,0.0793586141956955,-0.00164522494061283));
#1662=CARTESIAN_POINT('',(-0.00630133416646469,0.0774774997494267,-0.000869118703689817));
#1663=CARTESIAN_POINT('',(-0.00630133416646469,0.076525,-0.00086911870368982));
#1664=CARTESIAN_POINT('',(-0.00708845783094833,0.076525,-0.00807626351538951));
#1665=CARTESIAN_POINT('',(-0.00708845783094833,-0.084025,-0.00807626351538951));
#1666=CARTESIAN_POINT('',(-0.00666792159869372,-0.0715240632439005,-0.00422570525982774));
#1667=CARTESIAN_POINT('',(-0.00708845807501963,-0.0715249999968366,-0.00807625121169746));
#1668=CARTESIAN_POINT('',(-0.0070676844670926,-0.0703628533841214,-0.00788607373143633));
#1669=CARTESIAN_POINT('',(-0.00708845783094833,-0.084025,-0.00807626351538951));
#1670=CARTESIAN_POINT('',(-0.00708845783094833,-0.076525,-0.00807626351538951));
#1671=CARTESIAN_POINT('',(-0.00630133416646469,-0.076525,-0.00086911870368982));
#1672=CARTESIAN_POINT('',(-0.00630133416646469,-0.0774767903132033,-0.000869118703689822));
#1673=CARTESIAN_POINT('',(-0.00638659341862313,-0.0793646905262384,-0.00164977847110541));
#1674=CARTESIAN_POINT('',(-0.0066952918632475,-0.080544741963683,-0.00447631576625052));
#1675=CARTESIAN_POINT('',(-0.00700387896069237,-0.0793563316238084,-0.00730183353259316));
#1676=CARTESIAN_POINT('',(-0.00708845783094833,-0.0774767903132033,-0.00807626351538952));
#1677=CARTESIAN_POINT('',(-0.00708845783094833,-0.076525,-0.00807626351538952));
#1678=CARTESIAN_POINT('',(-0.00630133416646469,-0.076525,-0.000869118703689821));
#1679=CARTESIAN_POINT('',(-0.00630133416646469,-0.084025,-0.000869118703689833));
#1680=CARTESIAN_POINT('',(-0.0063013339223934,-0.0715249999968366,-0.000869131007381057));
#1681=CARTESIAN_POINT('',(-0.00672187039875601,-0.0715240632439521,-0.00471967695958777));
#1682=CARTESIAN_POINT('',(-0.00632210753032047,-0.0703628533841199,-0.0010593084876426));
#1683=CARTESIAN_POINT('',(-0.00590999463957975,-0.0815781275142197,0.00271410559519094));
#1684=CARTESIAN_POINT('',(-0.0066948959987065,-0.0602177512288092,-0.00447269110953953));
#1685=CARTESIAN_POINT('',(-0.0074797973578333,-0.0815781275142194,-0.0116594878142705));
#1686=CARTESIAN_POINT('',(-0.00696273778709182,-0.084025,0.00414802020965854));
#1687=CARTESIAN_POINT('',(-0.0081578301993233,-0.084025,0.0042785414553792));
#1688=CARTESIAN_POINT('',(-0.0081578301993233,-0.076025,0.0042785414553792));
#1689=CARTESIAN_POINT('',(-0.0081578301993233,0.076025,0.0042785414553792));
#1690=CARTESIAN_POINT('',(-0.00576764537486034,-0.076025,0.00401749896393788));
#1691=CARTESIAN_POINT('',(-0.00696273778709182,0.076025,0.00414802020965854));
#1692=CARTESIAN_POINT('',(-0.00908508082316947,-0.084025,-0.00421164861809836));
#1693=CARTESIAN_POINT('',(-0.00439229767075235,-0.0693955923121873,0.03875690800834));
#1694=CARTESIAN_POINT('',(-0.00952781541632742,0.07036285338412,-0.00826547933347104));
#1695=CARTESIAN_POINT('',(-0.00915502694794137,0.0602177512288092,-0.00485209671157418));
#1696=CARTESIAN_POINT('',(-0.00912805254791748,0.0715240632439161,-0.00460511086176063));
#1697=CARTESIAN_POINT('',(-0.00954859039218859,0.0715249999969462,-0.00845565702469765));
#1698=CARTESIAN_POINT('',(-0.0095485887801832,-0.084025,-0.00845566911742417));
#1699=CARTESIAN_POINT('',(-0.0095485887801832,0.076525,-0.00845566911742417));
#1700=CARTESIAN_POINT('',(-0.0095485887801832,0.076525,-0.00845566911742417));
#1701=CARTESIAN_POINT('',(-0.0095485887801832,0.0774774997494267,-0.00845566911742417));
#1702=CARTESIAN_POINT('',(-0.00946406853651462,0.0793557215755544,-0.00768177593757779));
#1703=CARTESIAN_POINT('',(-0.00915515236151811,0.0805464157877676,-0.00485324503660845));
#1704=CARTESIAN_POINT('',(-0.00884622705696703,0.0793586141956955,-0.00202463054264749));
#1705=CARTESIAN_POINT('',(-0.00876146511569956,0.0774774997494267,-0.00124852430572448));
#1706=CARTESIAN_POINT('',(-0.00876146511569956,0.076525,-0.00124852430572447));
#1707=CARTESIAN_POINT('',(-0.00876146511569956,0.076525,-0.00124852430572447));
#1708=CARTESIAN_POINT('',(-0.00876146511569956,-0.084025,-0.00124852430572449));
#1709=CARTESIAN_POINT('',(-0.00876146487162827,0.0715249999968366,-0.00124853660941571));
#1710=CARTESIAN_POINT('',(-0.00918200134799088,0.0715240632439521,-0.00509908256162243));
#1711=CARTESIAN_POINT('',(-0.00878224016899926,0.0703628535384096,-0.00143871429925693));
#1712=CARTESIAN_POINT('',(-0.0139033783144495,-0.0690043105558718,-0.0483294528875014));
#1713=CARTESIAN_POINT('',(-0.0095485887801832,-0.084025,-0.00845566911742417));
#1714=CARTESIAN_POINT('',(-0.0095485887801832,-0.076525,-0.00845566911742417));
#1715=CARTESIAN_POINT('',(-0.00954858902425451,-0.0715249999968366,-0.00845565681373211));
#1716=CARTESIAN_POINT('',(-0.00912805254792859,-0.0715240632439005,-0.00460511086186239));
#1717=CARTESIAN_POINT('',(-0.0095278132327255,-0.0703628535384093,-0.00826547904768225));
#1718=CARTESIAN_POINT('',(-0.00993273935172788,-0.0813824866360605,-0.0119730691443131));
#1719=CARTESIAN_POINT('',(-0.00915502694794137,-0.0602177512288092,-0.00485209671157418));
#1720=CARTESIAN_POINT('',(-0.00836293663347433,-0.0817737683923786,0.00240052426514831));
#1721=CARTESIAN_POINT('',(-0.00878223847955534,-0.0703628533841199,-0.00143871408967726));
#1722=CARTESIAN_POINT('',(-0.00918200134799088,-0.0715240632439521,-0.00509908256162243));
#1723=CARTESIAN_POINT('',(-0.0087614630095363,-0.0715249999969462,-0.0012485363222408));
#1724=CARTESIAN_POINT('',(-0.00876146511569956,-0.084025,-0.00124852430572449));
#1725=CARTESIAN_POINT('',(-0.00876146511569956,-0.076525,-0.00124852430572447));
#1726=CARTESIAN_POINT('',(-0.00876146511569956,-0.076525,-0.00124852430572447));
#1727=CARTESIAN_POINT('',(-0.00876146511569956,-0.0774761926629418,-0.00124852430572448));
#1728=CARTESIAN_POINT('',(-0.00884660456082492,-0.0793631836146586,-0.00202808708333293));
#1729=CARTESIAN_POINT('',(-0.00915501838823074,-0.0805433282240493,-0.00485201833624794));
#1730=CARTESIAN_POINT('',(-0.00946341949994911,-0.0793635034811375,-0.00767583316044276));
#1731=CARTESIAN_POINT('',(-0.0095485887801832,-0.0774761926629418,-0.00845566911742416));
#1732=CARTESIAN_POINT('',(-0.0095485887801832,-0.076525,-0.00845566911742417));
#1733=CARTESIAN_POINT('',(-0.00908508082316947,-0.084025,-0.00421164861809836));
#1734=CARTESIAN_POINT('',(-0.009026380449788,-0.084025,-0.00367417006097908));
#1735=CARTESIAN_POINT('',(-0.009026380449788,-0.076025,-0.00367417006097908));
#1736=CARTESIAN_POINT('',(-0.009026380449788,0.076025,-0.00367417006097908));
#1737=CARTESIAN_POINT('',(-0.009026380449788,0.084025,-0.00367417006097908));
#1738=CARTESIAN_POINT('',(-0.00908508082316947,0.084025,-0.00421164861809836));
#1739=CARTESIAN_POINT('',(-0.015964677969811,-0.0184234249346586,-0.0672033424512754));
#1740=CARTESIAN_POINT('',(-0.00952028420566548,0.0389117159462188,-0.00819650378345271));
#1741=CARTESIAN_POINT('',(-0.00908508082316947,0.0389117159462188,-0.00421164861809836));
#1742=CARTESIAN_POINT('',(-0.00928225401111923,0.0389117159462188,-0.00601702658176388));
#1743=CARTESIAN_POINT('',(-0.00251071466234989,-0.0213340071972323,0.0559852570323604));
#1744=CARTESIAN_POINT('',(-0.00872026064499716,0.0339117159462188,-0.000871243580164697));
#1745=CARTESIAN_POINT('',(-0.00872026064499716,-0.084025,-0.000871243580164711));
#1746=CARTESIAN_POINT('',(-0.00872026064499716,0.0231132622408475,-0.000871243580164698));
#1747=CARTESIAN_POINT('',(-0.0147214340214715,-0.0302785902100474,-0.0558198209333059));
#1748=CARTESIAN_POINT('',(-0.00928225401111923,0.0181132622408475,-0.00601702658176388));
#1749=CARTESIAN_POINT('',(-0.00908508082316947,0.0181132622408475,-0.0042116486180983));
#1750=CARTESIAN_POINT('',(-0.00952028420566548,0.0181132622408475,-0.00819650378345271));
#1751=CARTESIAN_POINT('',(-0.00375395861068945,-0.0331891724726211,0.0446017355143909));
#1752=CARTESIAN_POINT('',(-0.0128709711050543,-0.047923995795494,-0.0388764169815932));
#1753=CARTESIAN_POINT('',(-0.00952028420566548,-0.0181132622408475,-0.00819650378345271));
#1754=CARTESIAN_POINT('',(-0.00908508082316948,-0.0181132622408475,-0.0042116486180984));
#1755=CARTESIAN_POINT('',(-0.00928225401111923,-0.0181132622408475,-0.00601702658176388));
#1756=CARTESIAN_POINT('',(-0.00560442152710661,-0.0508345780580677,0.0276583315626783));
#1757=CARTESIAN_POINT('',(-0.00872026064499716,-0.0231132622408475,-0.000871243580164698));
#1758=CARTESIAN_POINT('',(-0.00872026064499716,-0.084025,-0.000871243580164691));
#1759=CARTESIAN_POINT('',(-0.00872026064499716,-0.0339117159462188,-0.000871243580164697));
#1760=CARTESIAN_POINT('',(-0.0116277271567147,-0.0597791610708828,-0.0274928954636238));
#1761=CARTESIAN_POINT('',(-0.00928225401111923,-0.0389117159462188,-0.00601702658176388));
#1762=CARTESIAN_POINT('',(-0.00908508082316947,-0.0389117159462188,-0.00421164861809836));
#1763=CARTESIAN_POINT('',(-0.00952028420566548,-0.0389117159462188,-0.00819650378345271));
#1764=CARTESIAN_POINT('',(-0.00684766547544616,-0.0626897433334566,0.0162748100447088));
#1765=CARTESIAN_POINT('',(-0.00864319734212008,-0.084025,-0.00662831566515235));
#1766=CARTESIAN_POINT('',(-0.009026380449788,-0.084025,-0.00367417006097908));
#1767=CARTESIAN_POINT('',(-0.00866412689448725,-0.084025,-0.00640276333053628));
#1768=CARTESIAN_POINT('',(-0.00864319734212008,0.084025,-0.00662831566515235));
#1769=CARTESIAN_POINT('',(-0.00832888184496371,0.084025,-0.00375034692049081));
#1770=CARTESIAN_POINT('',(-0.0171184434164917,0.084025,-0.00718726002252171));
#1771=CARTESIAN_POINT('',(-0.0098180667508689,0.0285124890935331,-0.00104054911515873));
#1772=CARTESIAN_POINT('',(-0.00872026064499716,0.0231132622408475,-0.000871243580164698));
#1773=CARTESIAN_POINT('',(-0.0098180667508689,0.0339117159462188,-0.00104054911515873));
#1774=CARTESIAN_POINT('',(-0.0101585709825665,0.0181132622408475,-0.00415830991638053));
#1775=CARTESIAN_POINT('',(-0.0109835299698885,0.0181132622408475,-0.00842216804749213));
#1776=CARTESIAN_POINT('',(-0.00549803089433356,0.0181132622408475,-0.00543341722133367));
#1777=CARTESIAN_POINT('',(-0.0111800836776593,-0.084025,-0.0135115923200459));
#1778=CARTESIAN_POINT('',(-0.0111800836776593,0.0339117159462188,-0.0135115923200459));
#1779=CARTESIAN_POINT('',(-0.00762214662255269,0.0231132622408475,-0.0129628811830172));
#1780=CARTESIAN_POINT('',(-0.0104990752142641,0.0389117159462188,-0.00727607071760232));
#1781=CARTESIAN_POINT('',(-0.0103376831615258,0.0389117159462188,-0.0083225644482507));
#1782=CARTESIAN_POINT('',(-0.0106604672670024,0.0389117159462188,-0.00622957698695395));
#1783=CARTESIAN_POINT('',(-0.0102894120584033,-0.0715240632439005,-0.00478421771159628));
#1784=CARTESIAN_POINT('',(-0.0106256218213767,-0.0703628583273519,-0.00843477012411583));
#1785=CARTESIAN_POINT('',(-0.0106463948860549,-0.071525,-0.0086249746524182));
#1786=CARTESIAN_POINT('',(-0.0104392274375949,-0.0652903047780805,-0.00672808618534202));
#1787=CARTESIAN_POINT('',(-0.0102528330538131,-0.0602177512288092,-0.00502140224656821));
#1788=CARTESIAN_POINT('',(-0.0100664386700313,-0.0652903047780806,-0.00331471830779453));
#1789=CARTESIAN_POINT('',(-0.00988004428624952,-0.0703628583273519,-0.00160803436902085));
#1790=CARTESIAN_POINT('',(-0.0102162540491732,-0.0715240632439521,-0.00525858678186326));
#1791=CARTESIAN_POINT('',(-0.0098592712215713,-0.071525,-0.00141782984071851));
#1792=CARTESIAN_POINT('',(-0.0098592712215713,-0.074025,-0.00141782984071852));
#1793=CARTESIAN_POINT('',(-0.0098592712215713,-0.076525,-0.00141782984071851));
#1794=CARTESIAN_POINT('',(-0.00876146511569956,-0.076525,-0.00124852430572448));
#1795=CARTESIAN_POINT('',(-0.00630133416646469,-0.076525,-0.000869118703689825));
#1796=CARTESIAN_POINT('',(-0.00876146511569956,-0.0774740227807719,-0.00124852430572448));
#1797=CARTESIAN_POINT('',(-0.00630133416646469,-0.0774740227807719,-0.000869118703689825));
#1798=CARTESIAN_POINT('',(-0.0088466273210832,-0.0793645127732165,-0.00202829548321315));
#1799=CARTESIAN_POINT('',(-0.00638649637184833,-0.0793645127732165,-0.0016488898811785));
#1800=CARTESIAN_POINT('',(-0.00915502694794138,-0.0805427436133918,-0.00485209671157434));
#1801=CARTESIAN_POINT('',(-0.00669489599870651,-0.0805427436133918,-0.00447269110953969));
#1802=CARTESIAN_POINT('',(-0.00946342657479956,-0.0793645127732165,-0.00767589793993549));
#1803=CARTESIAN_POINT('',(-0.00700329562556469,-0.0793645127732165,-0.00729649233790084));
#1804=CARTESIAN_POINT('',(-0.0095485887801832,-0.0774740227807719,-0.00845566911742418));
#1805=CARTESIAN_POINT('',(-0.00708845783094833,-0.0774740227807719,-0.00807626351538952));
#1806=CARTESIAN_POINT('',(-0.0095485887801832,-0.076525,-0.00845566911742418));
#1807=CARTESIAN_POINT('',(-0.00708845783094833,-0.076525,-0.00807626351538952));
#1808=CARTESIAN_POINT('',(-0.0106463948860549,-0.076525,-0.0086249746524182));
#1809=CARTESIAN_POINT('',(-0.0106463948860549,-0.074025,-0.0086249746524182));
#1810=CARTESIAN_POINT('',(-0.0102894120584183,0.0715240632439161,-0.00478421771149856));
#1811=CARTESIAN_POINT('',(-0.0106463948860549,0.071525,-0.0086249746524182));
#1812=CARTESIAN_POINT('',(-0.0106256218213767,0.0703628583273519,-0.00843477012411583));
#1813=CARTESIAN_POINT('',(-0.0104392274375949,0.0652903047780805,-0.00672808618534202));
#1814=CARTESIAN_POINT('',(-0.0102528330538131,0.0602177512288092,-0.00502140224656821));
#1815=CARTESIAN_POINT('',(-0.0100664386700313,0.0652903047780806,-0.00331471830779453));
#1816=CARTESIAN_POINT('',(-0.00988004428624952,0.0703628583273519,-0.00160803436902085));
#1817=CARTESIAN_POINT('',(-0.0102162540491732,0.0715240632439521,-0.00525858678186326));
#1818=CARTESIAN_POINT('',(-0.0098592712215713,0.071525,-0.00141782984071851));
#1819=CARTESIAN_POINT('',(-0.0098592712215713,0.074025,-0.00141782984071852));
#1820=CARTESIAN_POINT('',(-0.0098592712215713,0.076525,-0.00141782984071851));
#1821=CARTESIAN_POINT('',(-0.00876146511569956,0.076525,-0.00124852430572448));
#1822=CARTESIAN_POINT('',(-0.00630133416646469,0.076525,-0.000869118703689825));
#1823=CARTESIAN_POINT('',(-0.00876146511569956,0.0774740227807719,-0.00124852430572448));
#1824=CARTESIAN_POINT('',(-0.00630133416646469,0.0774740227807719,-0.000869118703689825));
#1825=CARTESIAN_POINT('',(-0.0088466273210832,0.0793645127732165,-0.00202829548321315));
#1826=CARTESIAN_POINT('',(-0.00638649637184833,0.0793645127732165,-0.0016488898811785));
#1827=CARTESIAN_POINT('',(-0.00915502694794138,0.0805427436133918,-0.00485209671157434));
#1828=CARTESIAN_POINT('',(-0.00669489599870651,0.0805427436133918,-0.00447269110953969));
#1829=CARTESIAN_POINT('',(-0.00946342657479956,0.0793645127732165,-0.00767589793993549));
#1830=CARTESIAN_POINT('',(-0.00700329562556469,0.0793645127732165,-0.00729649233790084));
#1831=CARTESIAN_POINT('',(-0.0095485887801832,0.0774740227807719,-0.00845566911742418));
#1832=CARTESIAN_POINT('',(-0.00708845783094833,0.0774740227807719,-0.00807626351538952));
#1833=CARTESIAN_POINT('',(-0.0095485887801832,0.076525,-0.00845566911742418));
#1834=CARTESIAN_POINT('',(-0.00708845783094833,0.076525,-0.00807626351538952));
#1835=CARTESIAN_POINT('',(-0.0106463948860549,0.076525,-0.0086249746524182));
#1836=CARTESIAN_POINT('',(-0.0106463948860549,0.074025,-0.0086249746524182));
#1837=CARTESIAN_POINT('',(-0.0098180667508689,-0.0285124890935331,-0.00104054911515873));
#1838=CARTESIAN_POINT('',(-0.00626012969576229,-0.0231132622408475,-0.000491837978130045));
#1839=CARTESIAN_POINT('',(-0.0098180667508689,-0.0339117159462188,-0.00104054911515873));
#1840=CARTESIAN_POINT('',(-0.0101585709825665,-0.0181132622408475,-0.00415830991638053));
#1841=CARTESIAN_POINT('',(-0.00838424542398142,-0.0181132622408475,-0.00802130193981361));
#1842=CARTESIAN_POINT('',(-0.00795816184356843,-0.0181132622408475,-0.00581282282336832));
#1843=CARTESIAN_POINT('',(-0.0111800836776593,0.084025,-0.0135115923200459));
#1844=CARTESIAN_POINT('',(-0.0111800836776593,-0.0339117159462188,-0.0135115923200459));
#1845=CARTESIAN_POINT('',(-0.0102214311684598,-0.0231132622408475,-0.0133637472906958));
#1846=CARTESIAN_POINT('',(-0.0104990752142641,-0.0389117159462188,-0.00727607071760232));
#1847=CARTESIAN_POINT('',(-0.0103376831615258,-0.0389117159462188,-0.0083225644482507));
#1848=CARTESIAN_POINT('',(-0.0106604672670024,-0.0389117159462188,-0.00622957698695395));
#1849=CARTESIAN_POINT('',(-0.0228951382967603,0.033,-0.00592224269643847));
#1850=CARTESIAN_POINT('',(-0.023414363540619,0.033,-0.0025554972261799));
#1851=CARTESIAN_POINT('',(-0.0223759130529016,0.033,-0.00928898816669704));
#1852=CARTESIAN_POINT('',(-0.0223759130529016,0.0288100148482185,-0.00928898816669704));
#1853=CARTESIAN_POINT('',(-0.0223759130529016,0.024620029696437,-0.00928898816669704));
#1854=CARTESIAN_POINT('',(-0.0228951382967603,0.024620029696437,-0.00592224269643847));
#1855=CARTESIAN_POINT('',(-0.023414363540619,0.024620029696437,-0.0025554972261799));
#1856=CARTESIAN_POINT('',(-0.023414363540619,0.0288100148482185,-0.0025554972261799));
#1857=CARTESIAN_POINT('',(-0.0228951382967603,-0.033,-0.00592224269643847));
#1858=CARTESIAN_POINT('',(-0.0223759130529016,-0.033,-0.00928898816669704));
#1859=CARTESIAN_POINT('',(-0.023414363540619,-0.033,-0.0025554972261799));
#1860=CARTESIAN_POINT('',(-0.0223759130529016,-0.0288100148482185,-0.00928898816669704));
#1861=CARTESIAN_POINT('',(-0.0223759130529016,-0.024620029696437,-0.00928898816669704));
#1862=CARTESIAN_POINT('',(-0.0228951382967603,-0.024620029696437,-0.00592224269643847));
#1863=CARTESIAN_POINT('',(-0.023414363540619,-0.024620029696437,-0.0025554972261799));
#1864=CARTESIAN_POINT('',(-0.023414363540619,-0.0288100148482185,-0.0025554972261799));
#1865=CARTESIAN_POINT('',(-0.00832888184496371,-0.076025,-0.00375034692049081));
#1866=CARTESIAN_POINT('',(-0.00783128803755652,0.076025,-0.00380469130669974));
#1867=CARTESIAN_POINT('',(-0.00866412689448725,0.076025,-0.00640276333053628));
#1868=CARTESIAN_POINT('',(-0.01831549955534,-0.076025,-0.00729833778718821));
#1869=CARTESIAN_POINT('',(-0.0111800836776593,-0.0339117159462188,-0.0135115923200459));
#1870=CARTESIAN_POINT('',(-0.00953543350274462,-0.0181132622408475,-0.00819884013395491));
#1871=CARTESIAN_POINT('',(-0.0098180667508689,-0.0231132622408475,-0.00104054911515873));
#1872=CARTESIAN_POINT('',(-0.0106604672670024,-0.0389117159462188,-0.00622957698695395));
#1873=CARTESIAN_POINT('',(-0.0103376831615258,0.0389117159462188,-0.0083225644482507));
#1874=CARTESIAN_POINT('',(-0.0111800836776593,0.0231132622408475,-0.0135115923200459));
#1875=CARTESIAN_POINT('',(-0.0098582176082213,0.0181132622408475,-0.00610585267265816));
#1876=CARTESIAN_POINT('',(-0.0098180667508689,0.0339117159462188,-0.00104054911515873));
#1877=MECHANICAL_DESIGN_GEOMETRIC_PRESENTATION_REPRESENTATION('',(#1114),
#1878);
#1878=(
GEOMETRIC_REPRESENTATION_CONTEXT(3)
GLOBAL_UNCERTAINTY_ASSIGNED_CONTEXT((#1879))
GLOBAL_UNIT_ASSIGNED_CONTEXT((#1882,#1881,#1880))
REPRESENTATION_CONTEXT('Folded','TOP_LEVEL_ASSEMBLY_PART')
);
#1879=UNCERTAINTY_MEASURE_WITH_UNIT(LENGTH_MEASURE(2.E-5),#1882,
'DISTANCE_ACCURACY_VALUE','Maximum Tolerance applied to model');
#1880=(
NAMED_UNIT(*)
SI_UNIT($,.STERADIAN.)
SOLID_ANGLE_UNIT()
);
#1881=(
NAMED_UNIT(*)
PLANE_ANGLE_UNIT()
SI_UNIT($,.RADIAN.)
);
#1882=(
LENGTH_UNIT()
NAMED_UNIT(*)
SI_UNIT($,.METRE.)
);
#1883=PRODUCT_DEFINITION_SHAPE('','',#1884);
#1884=PRODUCT_DEFINITION('','',#1886,#1885);
#1885=PRODUCT_DEFINITION_CONTEXT('',#1892,'design');
#1886=PRODUCT_DEFINITION_FORMATION_WITH_SPECIFIED_SOURCE('','',#1888,
 .NOT_KNOWN.);
#1887=PRODUCT_RELATED_PRODUCT_CATEGORY('','',(#1888));
#1888=PRODUCT('Folded','Folded','Folded',(#1890));
#1889=PRODUCT_CATEGORY('','');
#1890=PRODUCT_CONTEXT('',#1892,'mechanical');
#1891=APPLICATION_PROTOCOL_DEFINITION('international standard',
'ap242_managed_model_based_3d_engineering',2020,#1892);
#1892=APPLICATION_CONTEXT('managed model based 3d engineering');
ENDSEC;
END-ISO-10303-21;
