999
"DXF R12 Output" (www.mydxf.blogspot.com)
 0 
SECTION
 2 
HEADER
 9 
$ACADVER
 1 
AC1009
 9 
$EXTMIN
 10 
 0 
 20 
 0 
 9 
$EXTMAX
 10 
 8.5 
 20 
 11 
 0 
ENDSEC
 0 
SECTION
 2 
ENTITIES
0
POLYLINE
8
caraway
62
7
70
0
10
0.000000
20
0.000000
66
1
0
VERTEX
8
caraway
10
4.857301
20
5.046823
70
0
0
VERTEX
8
caraway
10
4.085841
20
5.493088
70
0
0
VERTEX
8
caraway
10
3.100087
20
5.655364
70
0
0
VERTEX
8
caraway
10
2.214337
20
5.509314
70
0
0
VERTEX
8
caraway
10
1.585740
20
5.136077
70
0
0
VERTEX
8
caraway
10
1.200010
20
4.616788
70
0
0
VERTEX
8
caraway
10
0.971429
20
4.024474
70
0
0
VERTEX
8
caraway
10
0.871425
20
3.448389
70
0
0
VERTEX
8
caraway
10
0.857139
20
2.969669
70
0
0
VERTEX
8
caraway
10
1.000002
20
1.736359
70
0
0
VERTEX
8
caraway
10
1.428591
20
0.900631
70
0
0
VERTEX
8
caraway
10
2.071475
20
0.421911
70
0
0
VERTEX
8
caraway
10
2.914366
20
0.267748
70
0
0
VERTEX
8
caraway
10
3.985838
20
0.413798
70
0
0
VERTEX
8
caraway
10
4.900161
20
0.876289
70
0
0
VERTEX
8
caraway
10
4.800157
20
0.697783
70
0
0
VERTEX
8
caraway
10
4.743011
20
0.494936
70
0
0
VERTEX
8
caraway
10
4.785870
20
0.251519
70
0
0
VERTEX
8
caraway
10
4.671580
20
0.259635
70
0
0
VERTEX
8
caraway
10
4.357281
20
0.219065
70
0
0
VERTEX
8
caraway
10
3.985838
20
0.129814
70
0
0
VERTEX
8
caraway
10
3.528676
20
0.040560
70
0
0
VERTEX
8
caraway
10
2.942938
20
-0.000009
70
0
0
VERTEX
8
caraway
10
1.800035
20
0.137927
70
0
0
VERTEX
8
caraway
10
1.000002
20
0.519280
70
0
0
VERTEX
8
caraway
10
0.471410
20
1.062909
70
0
0
VERTEX
8
caraway
10
0.171398
20
1.695792
70
0
0
VERTEX
8
caraway
10
0.028535
20
2.353017
70
0
0
VERTEX
8
caraway
10
-0.000040
20
2.969671
70
0
0
VERTEX
8
caraway
10
0.228541
20
4.308462
70
0
0
VERTEX
8
caraway
10
0.857138
20
5.217217
70
0
0
VERTEX
8
caraway
10
1.828606
20
5.736506
70
0
0
VERTEX
8
caraway
10
3.042941
20
5.906896
70
0
0
VERTEX
8
caraway
10
3.728683
20
5.858214
70
0
0
VERTEX
8
caraway
10
4.242989
20
5.760847
70
0
0
VERTEX
8
caraway
10
4.614433
20
5.655366
70
0
0
VERTEX
8
caraway
10
4.928731
20
5.614797
70
0
0
VERTEX
8
caraway
10
4.971590
20
5.614797
70
0
0
VERTEX
8
caraway
10
4.914445
20
5.517430
70
0
0
VERTEX
8
caraway
10
4.857300
20
5.460634
70
0
0
VERTEX
8
caraway
10
4.828725
20
5.338925
70
0
0
VERTEX
8
caraway
10
4.857300
20
5.046825
70
0
0
VERTEX
8
caraway
10
4.857301
20
5.046823
70
0
0
SEQEND
8
caraway
0
POLYLINE
8
caraway
62
7
70
0
10
0.000000
20
0.000000
66
1
0
VERTEX
8
caraway
10
6.873105
20
1.476716
70
0
0
VERTEX
8
caraway
10
6.515948
20
0.697783
70
0
0
VERTEX
8
caraway
10
6.387371
20
0.308317
70
0
0
VERTEX
8
caraway
10
6.373086
20
0.137925
70
0
0
VERTEX
8
caraway
10
5.644485
20
0.137925
70
0
0
VERTEX
8
caraway
10
5.873065
20
0.494936
70
0
0
VERTEX
8
caraway
10
6.058787
20
0.827606
70
0
0
VERTEX
8
caraway
10
6.330227
20
1.330666
70
0
0
VERTEX
8
caraway
10
6.701670
20
2.028460
70
0
0
VERTEX
8
caraway
10
7.187404
20
2.969669
70
0
0
VERTEX
8
caraway
10
7.630279
20
3.894652
70
0
0
VERTEX
8
caraway
10
7.973150
20
4.592446
70
0
0
VERTEX
8
caraway
10
8.201731
20
5.095506
70
0
0
VERTEX
8
caraway
10
8.330308
20
5.436290
70
0
0
VERTEX
8
caraway
10
8.401739
20
5.793300
70
0
0
VERTEX
8
caraway
10
9.501784
20
5.793300
70
0
0
VERTEX
8
caraway
10
9.616074
20
5.436290
70
0
0
VERTEX
8
caraway
10
9.758937
20
5.095506
70
0
0
VERTEX
8
caraway
10
9.987518
20
4.592446
70
0
0
VERTEX
8
caraway
10
10.316102
20
3.894652
70
0
0
VERTEX
8
caraway
10
10.787550
20
2.969669
70
0
0
VERTEX
8
caraway
10
11.258998
20
2.028460
70
0
0
VERTEX
8
caraway
10
11.630441
20
1.330666
70
0
0
VERTEX
8
caraway
10
11.916167
20
0.827606
70
0
0
VERTEX
8
caraway
10
12.116176
20
0.494936
70
0
0
VERTEX
8
caraway
10
12.373329
20
0.137925
70
0
0
VERTEX
8
caraway
10
11.244711
20
0.137925
70
0
0
VERTEX
8
caraway
10
11.230426
20
0.292088
70
0
0
VERTEX
8
caraway
10
11.158995
20
0.527391
70
0
0
VERTEX
8
caraway
10
11.001845
20
0.908744
70
0
0
VERTEX
8
caraway
10
10.730406
20
1.476716
70
0
0
VERTEX
8
caraway
10
6.873105
20
1.476716
70
0
0
SEQEND
8
caraway
0
POLYLINE
8
caraway
62
7
70
0
10
0.000000
20
0.000000
66
1
0
VERTEX
8
caraway
10
10.601828
20
1.720132
70
0
0
VERTEX
8
caraway
10
10.316102
20
2.263762
70
0
0
VERTEX
8
caraway
10
9.973231
20
2.937214
70
0
0
VERTEX
8
caraway
10
9.716077
20
3.407820
70
0
0
VERTEX
8
caraway
10
9.358920
20
4.048817
70
0
0
VERTEX
8
caraway
10
8.987476
20
4.706040
70
0
0
VERTEX
8
caraway
10
8.701751
20
5.225329
70
0
0
VERTEX
8
caraway
10
6.987395
20
1.720132
70
0
0
VERTEX
8
caraway
10
10.601828
20
1.720132
70
0
0
SEQEND
8
caraway
0
POLYLINE
8
caraway
62
7
70
0
10
0.000000
20
0.000000
66
1
0
VERTEX
8
caraway
10
16.446343
20
2.742482
70
0
0
VERTEX
8
caraway
10
17.474956
20
1.720132
70
0
0
VERTEX
8
caraway
10
18.189270
20
1.022338
70
0
0
VERTEX
8
caraway
10
18.675004
20
0.584189
70
0
0
VERTEX
8
caraway
10
18.975016
20
0.332659
70
0
0
VERTEX
8
caraway
10
19.175024
20
0.202837
70
0
0
VERTEX
8
caraway
10
19.332174
20
0.137925
70
0
0
VERTEX
8
caraway
10
17.832113
20
0.137925
70
0
0
VERTEX
8
caraway
10
17.803542
20
0.219063
70
0
0
VERTEX
8
caraway
10
17.717824
20
0.373228
70
0
0
VERTEX
8
caraway
10
17.517816
20
0.640985
70
0
0
VERTEX
8
caraway
10
17.132086
20
1.087250
70
0
0
VERTEX
8
caraway
10
16.503489
20
1.760702
70
0
0
VERTEX
8
caraway
10
15.546308
20
2.734368
70
0
0
VERTEX
8
caraway
10
14.103392
20
2.726253
70
0
0
VERTEX
8
caraway
10
14.117677
20
1.225186
70
0
0
VERTEX
8
caraway
10
14.174823
20
0.462480
70
0
0
VERTEX
8
caraway
10
14.246254
20
0.137925
70
0
0
VERTEX
8
caraway
10
13.217641
20
0.137925
70
0
0
VERTEX
8
caraway
10
13.274786
20
0.494936
70
0
0
VERTEX
8
caraway
10
13.289071
20
0.827606
70
0
0
VERTEX
8
caraway
10
13.317642
20
1.330666
70
0
0
VERTEX
8
caraway
10
13.331928
20
2.028460
70
0
0
VERTEX
8
caraway
10
13.346213
20
2.969669
70
0
0
VERTEX
8
caraway
10
13.331928
20
3.894652
70
0
0
VERTEX
8
caraway
10
13.317642
20
4.592446
70
0
0
VERTEX
8
caraway
10
13.289071
20
5.095506
70
0
0
VERTEX
8
caraway
10
13.274786
20
5.436290
70
0
0
VERTEX
8
caraway
10
13.217641
20
5.793300
70
0
0
VERTEX
8
caraway
10
15.946322
20
5.793300
70
0
0
VERTEX
8
caraway
10
17.292805
20
5.695934
70
0
0
VERTEX
8
caraway
10
18.217843
20
5.403834
70
0
0
VERTEX
8
caraway
10
18.771437
20
4.929172
70
0
0
VERTEX
8
caraway
10
18.975016
20
4.267891
70
0
0
VERTEX
8
caraway
10
18.803581
20
3.683691
70
0
0
VERTEX
8
caraway
10
18.303561
20
3.213086
70
0
0
VERTEX
8
caraway
10
17.503528
20
2.888531
70
0
0
VERTEX
8
caraway
10
16.446343
20
2.742482
70
0
0
VERTEX
8
caraway
10
16.446343
20
2.742482
70
0
0
SEQEND
8
caraway
0
POLYLINE
8
caraway
62
7
70
0
10
0.000000
20
0.000000
66
1
0
VERTEX
8
caraway
10
18.146412
20
4.267891
70
0
0
VERTEX
8
caraway
10
18.017835
20
4.779066
70
0
0
VERTEX
8
caraway
10
17.617819
20
5.184760
70
0
0
VERTEX
8
caraway
10
16.889218
20
5.460632
70
0
0
VERTEX
8
caraway
10
15.789173
20
5.566112
70
0
0
VERTEX
8
caraway
10
14.189108
20
5.566112
70
0
0
VERTEX
8
caraway
10
14.160537
20
5.257784
70
0
0
VERTEX
8
caraway
10
14.131963
20
4.762838
70
0
0
VERTEX
8
caraway
10
14.103392
20
4.032588
70
0
0
VERTEX
8
caraway
10
14.103392
20
3.010239
70
0
0
VERTEX
8
caraway
10
15.803461
20
3.010239
70
0
0
VERTEX
8
caraway
10
16.860647
20
3.107606
70
0
0
VERTEX
8
caraway
10
17.589247
20
3.375365
70
0
0
VERTEX
8
caraway
10
18.003550
20
3.772944
70
0
0
VERTEX
8
caraway
10
18.146413
20
4.267891
70
0
0
VERTEX
8
caraway
10
18.146412
20
4.267891
70
0
0
SEQEND
8
caraway
0
POLYLINE
8
caraway
62
7
70
0
10
0.000000
20
0.000000
66
1
0
VERTEX
8
caraway
10
21.033680
20
1.476716
70
0
0
VERTEX
8
caraway
10
20.676521
20
0.697783
70
0
0
VERTEX
8
caraway
10
20.547945
20
0.308317
70
0
0
VERTEX
8
caraway
10
20.533656
20
0.137925
70
0
0
VERTEX
8
caraway
10
19.805054
20
0.137925
70
0
0
VERTEX
8
caraway
10
20.033636
20
0.494936
70
0
0
VERTEX
8
caraway
10
20.219358
20
0.827606
70
0
0
VERTEX
8
caraway
10
20.490796
20
1.330666
70
0
0
VERTEX
8
caraway
10
20.862240
20
2.028460
70
0
0
VERTEX
8
caraway
10
21.347974
20
2.969669
70
0
0
VERTEX
8
caraway
10
21.790849
20
3.894652
70
0
0
VERTEX
8
caraway
10
22.133722
20
4.592446
70
0
0
VERTEX
8
caraway
10
22.362304
20
5.095506
70
0
0
VERTEX
8
caraway
10
22.490880
20
5.436290
70
0
0
VERTEX
8
caraway
10
22.562311
20
5.793300
70
0
0
VERTEX
8
caraway
10
23.662356
20
5.793300
70
0
0
VERTEX
8
caraway
10
23.776644
20
5.436290
70
0
0
VERTEX
8
caraway
10
23.919509
20
5.095506
70
0
0
VERTEX
8
caraway
10
24.148088
20
4.592446
70
0
0
VERTEX
8
caraway
10
24.476675
20
3.894652
70
0
0
VERTEX
8
caraway
10
24.948120
20
2.969669
70
0
0
VERTEX
8
caraway
10
25.419570
20
2.028460
70
0
0
VERTEX
8
caraway
10
25.791013
20
1.330666
70
0
0
VERTEX
8
caraway
10
26.076737
20
0.827606
70
0
0
VERTEX
8
caraway
10
26.276748
20
0.494936
70
0
0
VERTEX
8
caraway
10
26.533901
20
0.137925
70
0
0
VERTEX
8
caraway
10
25.405284
20
0.137925
70
0
0
VERTEX
8
caraway
10
25.390995
20
0.292088
70
0
0
VERTEX
8
caraway
10
25.319564
20
0.527391
70
0
0
VERTEX
8
caraway
10
25.162417
20
0.908744
70
0
0
VERTEX
8
caraway
10
24.890975
20
1.476716
70
0
0
VERTEX
8
caraway
10
21.033680
20
1.476716
70
0
0
SEQEND
8
caraway
0
POLYLINE
8
caraway
62
7
70
0
10
0.000000
20
0.000000
66
1
0
VERTEX
8
caraway
10
24.762402
20
1.720132
70
0
0
VERTEX
8
caraway
10
24.476678
20
2.263762
70
0
0
VERTEX
8
caraway
10
24.133806
20
2.937214
70
0
0
VERTEX
8
caraway
10
23.876653
20
3.407820
70
0
0
VERTEX
8
caraway
10
23.519495
20
4.048817
70
0
0
VERTEX
8
caraway
10
23.148051
20
4.706040
70
0
0
VERTEX
8
caraway
10
22.862327
20
5.225329
70
0
0
VERTEX
8
caraway
10
21.147971
20
1.720132
70
0
0
VERTEX
8
caraway
10
24.762402
20
1.720132
70
0
0
SEQEND
8
caraway
0
POLYLINE
8
caraway
62
7
70
0
10
0.000000
20
0.000000
66
1
0
VERTEX
8
caraway
10
29.521154
20
3.123834
70
0
0
VERTEX
8
caraway
10
29.935458
20
4.324689
70
0
0
VERTEX
8
caraway
10
30.135465
20
5.054937
70
0
0
VERTEX
8
caraway
10
30.206896
20
5.436290
70
0
0
VERTEX
8
caraway
10
30.221185
20
5.590455
70
0
0
VERTEX
8
caraway
10
31.192651
20
5.590455
70
0
0
VERTEX
8
caraway
10
31.178362
20
5.468745
70
0
0
VERTEX
8
caraway
10
31.178362
20
5.322696
70
0
0
VERTEX
8
caraway
10
31.206940
20
5.079279
70
0
0
VERTEX
8
caraway
10
31.306945
20
4.673586
70
0
0
VERTEX
8
caraway
10
31.492667
20
4.024474
70
0
0
VERTEX
8
caraway
10
31.821251
20
3.083263
70
0
0
VERTEX
8
caraway
10
31.992687
20
2.555863
70
0
0
VERTEX
8
caraway
10
32.192694
20
2.004118
70
0
0
VERTEX
8
caraway
10
32.378416
20
1.484829
70
0
0
VERTEX
8
caraway
10
32.549853
20
1.030452
70
0
0
VERTEX
8
caraway
10
32.849865
20
1.931093
70
0
0
VERTEX
8
caraway
10
33.192735
20
2.969669
70
0
0
VERTEX
8
caraway
10
33.492747
20
3.894652
70
0
0
VERTEX
8
caraway
10
33.707044
20
4.600559
70
0
0
VERTEX
8
caraway
10
33.849906
20
5.103621
70
0
0
VERTEX
8
caraway
10
33.935622
20
5.444403
70
0
0
VERTEX
8
caraway
10
33.978482
20
5.801414
70
0
0
VERTEX
8
caraway
10
34.721369
20
5.801414
70
0
0
VERTEX
8
caraway
10
34.549933
20
5.444403
70
0
0
VERTEX
8
caraway
10
34.421357
20
5.103621
70
0
0
VERTEX
8
caraway
10
34.235635
20
4.600559
70
0
0
VERTEX
8
caraway
10
33.992767
20
3.894652
70
0
0
VERTEX
8
caraway
10
33.678469
20
2.969669
70
0
0
VERTEX
8
caraway
10
33.364171
20
2.028460
70
0
0
VERTEX
8
caraway
10
33.149878
20
1.330666
70
0
0
VERTEX
8
caraway
10
33.007013
20
0.827606
70
0
0
VERTEX
8
caraway
10
32.921296
20
0.494936
70
0
0
VERTEX
8
caraway
10
32.878436
20
0.137925
70
0
0
VERTEX
8
caraway
10
31.821251
20
0.137925
70
0
0
VERTEX
8
caraway
10
31.764105
20
0.511165
70
0
0
VERTEX
8
caraway
10
31.649818
20
0.860060
70
0
0
VERTEX
8
caraway
10
31.492667
20
1.379349
70
0
0
VERTEX
8
caraway
10
31.264085
20
2.109599
70
0
0
VERTEX
8
caraway
10
30.935501
20
3.083263
70
0
0
VERTEX
8
caraway
10
30.835496
20
3.367251
70
0
0
VERTEX
8
caraway
10
30.721209
20
3.756717
70
0
0
VERTEX
8
caraway
10
30.592632
20
4.178639
70
0
0
VERTEX
8
caraway
10
30.492627
20
4.551877
70
0
0
VERTEX
8
caraway
10
29.778310
20
2.474723
70
0
0
VERTEX
8
caraway
10
29.335436
20
1.152161
70
0
0
VERTEX
8
caraway
10
29.106857
20
0.421911
70
0
0
VERTEX
8
caraway
10
29.078279
20
0.137925
70
0
0
VERTEX
8
caraway
10
27.992523
20
0.137925
70
0
0
VERTEX
8
caraway
10
27.949663
20
0.494936
70
0
0
VERTEX
8
caraway
10
27.863946
20
0.827606
70
0
0
VERTEX
8
caraway
10
27.735370
20
1.330666
70
0
0
VERTEX
8
caraway
10
27.549648
20
2.028460
70
0
0
VERTEX
8
caraway
10
27.292492
20
2.969669
70
0
0
VERTEX
8
caraway
10
27.006768
20
3.894652
70
0
0
VERTEX
8
caraway
10
26.792472
20
4.592446
70
0
0
VERTEX
8
caraway
10
26.635324
20
5.095506
70
0
0
VERTEX
8
caraway
10
26.521034
20
5.436290
70
0
0
VERTEX
8
caraway
10
26.349597
20
5.793300
70
0
0
VERTEX
8
caraway
10
27.463928
20
5.793300
70
0
0
VERTEX
8
caraway
10
27.449639
20
5.549884
70
0
0
VERTEX
8
caraway
10
27.549645
20
5.095506
70
0
0
VERTEX
8
caraway
10
27.763937
20
4.284118
70
0
0
VERTEX
8
caraway
10
28.163952
20
2.969669
70
0
0
VERTEX
8
caraway
10
28.292529
20
2.531521
70
0
0
VERTEX
8
caraway
10
28.449679
20
1.979776
70
0
0
VERTEX
8
caraway
10
28.606830
20
1.403691
70
0
0
VERTEX
8
caraway
10
28.749692
20
0.900631
70
0
0
VERTEX
8
caraway
10
29.092561
20
1.922980
70
0
0
VERTEX
8
caraway
10
29.521151
20
3.123834
70
0
0
VERTEX
8
caraway
10
29.521154
20
3.123834
70
0
0
SEQEND
8
caraway
0
POLYLINE
8
caraway
62
7
70
0
10
0.000000
20
0.000000
66
1
0
VERTEX
8
caraway
10
35.437097
20
1.476716
70
0
0
VERTEX
8
caraway
10
35.079939
20
0.697783
70
0
0
VERTEX
8
caraway
10
34.951363
20
0.308317
70
0
0
VERTEX
8
caraway
10
34.937074
20
0.137925
70
0
0
VERTEX
8
caraway
10
34.208472
20
0.137925
70
0
0
VERTEX
8
caraway
10
34.437053
20
0.494936
70
0
0
VERTEX
8
caraway
10
34.622775
20
0.827606
70
0
0
VERTEX
8
caraway
10
34.894214
20
1.330666
70
0
0
VERTEX
8
caraway
10
35.265657
20
2.028460
70
0
0
VERTEX
8
caraway
10
35.751392
20
2.969669
70
0
0
VERTEX
8
caraway
10
36.194266
20
3.894652
70
0
0
VERTEX
8
caraway
10
36.537136
20
4.592446
70
0
0
VERTEX
8
caraway
10
36.765718
20
5.095506
70
0
0
VERTEX
8
caraway
10
36.894294
20
5.436290
70
0
0
VERTEX
8
caraway
10
36.965725
20
5.793300
70
0
0
VERTEX
8
caraway
10
38.065770
20
5.793300
70
0
0
VERTEX
8
caraway
10
38.180061
20
5.436290
70
0
0
VERTEX
8
caraway
10
38.322923
20
5.095506
70
0
0
VERTEX
8
caraway
10
38.551505
20
4.592446
70
0
0
VERTEX
8
caraway
10
38.880089
20
3.894652
70
0
0
VERTEX
8
caraway
10
39.351538
20
2.969669
70
0
0
VERTEX
8
caraway
10
39.822984
20
2.028460
70
0
0
VERTEX
8
caraway
10
40.194427
20
1.330666
70
0
0
VERTEX
8
caraway
10
40.480154
20
0.827606
70
0
0
VERTEX
8
caraway
10
40.680162
20
0.494936
70
0
0
VERTEX
8
caraway
10
40.937315
20
0.137925
70
0
0
VERTEX
8
caraway
10
39.808698
20
0.137925
70
0
0
VERTEX
8
caraway
10
39.794409
20
0.292088
70
0
0
VERTEX
8
caraway
10
39.722978
20
0.527391
70
0
0
VERTEX
8
caraway
10
39.565827
20
0.908744
70
0
0
VERTEX
8
caraway
10
39.294389
20
1.476716
70
0
0
VERTEX
8
caraway
10
35.437097
20
1.476716
70
0
0
SEQEND
8
caraway
0
POLYLINE
8
caraway
62
7
70
0
10
0.000000
20
0.000000
66
1
0
VERTEX
8
caraway
10
39.165820
20
1.720132
70
0
0
VERTEX
8
caraway
10
38.880092
20
2.263762
70
0
0
VERTEX
8
caraway
10
38.537223
20
2.937214
70
0
0
VERTEX
8
caraway
10
38.280070
20
3.407820
70
0
0
VERTEX
8
caraway
10
37.922912
20
4.048817
70
0
0
VERTEX
8
caraway
10
37.551468
20
4.706040
70
0
0
VERTEX
8
caraway
10
37.265741
20
5.225329
70
0
0
VERTEX
8
caraway
10
35.551388
20
1.720132
70
0
0
VERTEX
8
caraway
10
39.165820
20
1.720132
70
0
0
SEQEND
8
caraway
0
POLYLINE
8
caraway
62
7
70
0
10
0.000000
20
0.000000
66
1
0
VERTEX
8
caraway
10
41.181618
20
5.793300
70
0
0
VERTEX
8
caraway
10
41.195907
20
5.671593
70
0
0
VERTEX
8
caraway
10
41.295912
20
5.436290
70
0
0
VERTEX
8
caraway
10
41.510209
20
5.038710
70
0
0
VERTEX
8
caraway
10
41.881652
20
4.446396
70
0
0
VERTEX
8
caraway
10
42.453103
20
3.594439
70
0
0
VERTEX
8
caraway
10
43.267422
20
2.458496
70
0
0
VERTEX
8
caraway
10
44.124600
20
3.740488
70
0
0
VERTEX
8
caraway
10
44.696051
20
4.624901
70
0
0
VERTEX
8
caraway
10
45.038920
20
5.192873
70
0
0
VERTEX
8
caraway
10
45.196071
20
5.517428
70
0
0
VERTEX
8
caraway
10
45.238931
20
5.695933
70
0
0
VERTEX
8
caraway
10
45.238931
20
5.793300
70
0
0
VERTEX
8
caraway
10
46.367548
20
5.793300
70
0
0
VERTEX
8
caraway
10
46.224682
20
5.720275
70
0
0
VERTEX
8
caraway
10
46.024675
20
5.541770
70
0
0
VERTEX
8
caraway
10
45.696091
20
5.176646
70
0
0
VERTEX
8
caraway
10
45.210357
20
4.535650
70
0
0
VERTEX
8
caraway
10
44.510329
20
3.537641
70
0
0
VERTEX
8
caraway
10
43.538860
20
2.077143
70
0
0
VERTEX
8
caraway
10
43.567438
20
0.957427
70
0
0
VERTEX
8
caraway
10
43.638869
20
0.389455
70
0
0
VERTEX
8
caraway
10
43.738871
20
0.137925
70
0
0
VERTEX
8
caraway
10
42.524538
20
0.137925
70
0
0
VERTEX
8
caraway
10
42.553116
20
0.170381
70
0
0
VERTEX
8
caraway
10
42.624547
20
0.397569
70
0
0
VERTEX
8
caraway
10
42.681692
20
0.973656
70
0
0
VERTEX
8
caraway
10
42.724552
20
2.069030
70
0
0
VERTEX
8
caraway
10
42.167387
20
2.872302
70
0
0
VERTEX
8
caraway
10
41.381639
20
4.000132
70
0
0
VERTEX
8
caraway
10
40.824477
20
4.787180
70
0
0
VERTEX
8
caraway
10
40.438744
20
5.282127
70
0
0
VERTEX
8
caraway
10
40.195877
20
5.574226
70
0
0
VERTEX
8
caraway
10
40.024444
20
5.720275
70
0
0
VERTEX
8
caraway
10
39.895868
20
5.793300
70
0
0
VERTEX
8
caraway
10
41.181632
20
5.793300
70
0
0
VERTEX
8
caraway
10
41.181618
20
5.793300
70
0
0
SEQEND
8
caraway
 0 
ENDSEC
 0 
EOF