999
"DXF R12 Output" (www.mydxf.blogspot.com)
 0 
SECTION
 2 
HEADER
 9 
$ACADVER
 1 
AC1009
 9 
$EXTMIN
 10 
 0 
 20 
 0 
 9 
$EXTMAX
 10 
 8.5 
 20 
 11 
 0 
ENDSEC
 0 
SECTION
 2 
ENTITIES
0
POLYLINE
8
Squares
62
7
70
0
10
0.000000
20
0.000000
66
1
0
VERTEX
8
Squares
10
-0.000001
20
20.113368
70
0
0
VERTEX
8
Squares
10
75.273863
20
20.113368
70
0
0
VERTEX
8
Squares
10
75.273863
20
19.604761
70
0
0
VERTEX
8
Squares
10
-0.000001
20
19.604761
70
0
0
VERTEX
8
Squares
10
-0.000001
20
20.113368
70
0
0
SEQEND
8
Squares
0
POLYLINE
8
Squares
62
7
70
0
10
0.000000
20
0.000000
66
1
0
VERTEX
8
Squares
10
17.588931
20
40.164433
70
0
0
VERTEX
8
Squares
10
57.621535
20
40.164433
70
0
0
VERTEX
8
Squares
10
57.621535
20
0.406967
70
0
0
VERTEX
8
Squares
10
17.588931
20
0.406967
70
0
0
VERTEX
8
Squares
10
17.588931
20
40.164433
70
0
0
SEQEND
8
Squares
0
POLYLINE
8
Squares
62
7
70
0
10
0.000000
20
0.000000
66
1
0
VERTEX
8
Squares
10
52.737828
20
26.338743
70
0
0
VERTEX
8
Squares
10
65.462968
20
26.338743
70
0
0
VERTEX
8
Squares
10
65.462968
20
13.751173
70
0
0
VERTEX
8
Squares
10
52.737828
20
13.751173
70
0
0
VERTEX
8
Squares
10
52.737828
20
26.338743
70
0
0
SEQEND
8
Squares
0
POLYLINE
8
Squares
62
7
70
0
10
0.000000
20
0.000000
66
1
0
VERTEX
8
Squares
10
56.210451
20
22.952217
70
0
0
VERTEX
8
Squares
10
61.567508
20
22.952217
70
0
0
VERTEX
8
Squares
10
61.567508
20
17.653074
70
0
0
VERTEX
8
Squares
10
56.210451
20
17.653074
70
0
0
VERTEX
8
Squares
10
56.210451
20
22.952217
70
0
0
SEQEND
8
Squares
0
POLYLINE
8
Squares
62
7
70
0
10
0.000000
20
0.000000
66
1
0
VERTEX
8
Squares
10
29.794013
20
24.533231
70
0
0
VERTEX
8
Squares
10
42.082546
20
27.837955
70
0
0
VERTEX
8
Squares
10
45.351542
20
15.682271
70
0
0
VERTEX
8
Squares
10
33.063010
20
12.377547
70
0
0
VERTEX
8
Squares
10
29.794013
20
24.533231
70
0
0
SEQEND
8
Squares
0
POLYLINE
8
Squares
62
7
70
0
10
0.000000
20
0.000000
66
1
0
VERTEX
8
Squares
10
7.959203
20
22.038407
70
0
0
VERTEX
8
Squares
10
18.951814
20
28.448663
70
0
0
VERTEX
8
Squares
10
25.292771
20
17.574891
70
0
0
VERTEX
8
Squares
10
14.300159
20
11.164635
70
0
0
VERTEX
8
Squares
10
7.959203
20
22.038407
70
0
0
SEQEND
8
Squares
0
POLYLINE
8
Squares
62
7
70
0
10
0.000000
20
0.000000
66
1
0
VERTEX
8
Squares
10
34.889944
20
22.043437
70
0
0
VERTEX
8
Squares
10
39.527726
20
23.276231
70
0
0
VERTEX
8
Squares
10
40.799046
20
18.493518
70
0
0
VERTEX
8
Squares
10
36.161264
20
17.260724
70
0
0
VERTEX
8
Squares
10
34.889944
20
22.043437
70
0
0
SEQEND
8
Squares
0
POLYLINE
8
Squares
62
7
70
0
10
0.000000
20
0.000000
66
1
0
VERTEX
8
Squares
10
12.856798
20
20.769968
70
0
0
VERTEX
8
Squares
10
17.009207
20
23.175446
70
0
0
VERTEX
8
Squares
10
19.489857
20
18.893274
70
0
0
VERTEX
8
Squares
10
15.337447
20
16.487795
70
0
0
VERTEX
8
Squares
10
12.856798
20
20.769968
70
0
0
SEQEND
8
Squares
 0 
ENDSEC
 0 
EOF